<svg width="186" height="371" viewBox="0 0 186 371" fill="none" xmlns="http://www.w3.org/2000/svg">
    <path
        d="M166.475 167.015C164.281 169.18 161.5 169.891 158.718 170.912C153.465 172.83 147.779 173.355 142.68 175.706C139.559 175.149 137.211 177.531 134.399 177.84C131.679 178.15 128.898 178.428 126.395 179.325C122.069 180.902 117.557 179.913 113.231 180.902C109.306 179.418 104.64 181.583 100.994 178.645C97.4093 178.521 94.3809 176.665 91.0744 175.706C87.2735 174.624 84.4924 172.397 81.8657 169.953C79.0228 167.324 76.2105 164.88 72.6259 163.241C70.9263 162.468 69.5977 160.921 68.0835 159.808C64.9933 157.55 62.0267 155.137 59.0293 152.818C55.2902 149.91 52.4163 145.951 49.3261 142.332C44.8453 137.136 40.4573 131.94 36.5636 126.31C32.1138 119.908 27.4786 113.629 24.8519 106.237C21.4527 102.185 20.7111 96.9265 18.1463 92.5034C16.2304 89.2557 15.1179 85.6368 13.1093 82.3892C11.5642 79.8838 10.9461 76.698 10.5135 73.7286C9.95723 69.9861 9.46284 66.2745 8.04135 62.7484C7.97955 62.5628 7.85595 62.4082 7.85595 62.2226C7.94866 57.1809 6.55795 52.2011 7.14508 47.1285C7.4232 44.8088 8.28858 42.7364 9.21564 40.6641C9.98818 38.932 11.3168 37.7257 13.3254 36.9215C19.3513 34.5399 24.4502 30.6427 29.0855 26.3124C31.9902 23.6215 34.6786 20.5284 36.749 17.2189C38.9122 13.7856 41.5388 10.7853 44.1346 7.72321C46.7922 4.56831 50.7786 3.17648 54.4559 1.5681C56.6808 0.609255 58.9984 0.021546 61.7486 0.423641C64.7152 0.856666 67.8672 0.361803 70.9882 0.640176C72.7496 0.794828 74.3875 1.13505 76.0871 1.44435C84.7087 3.08366 92.4342 7.22835 100.809 9.57905C101.674 9.8265 102.446 10.5379 103.219 11.0637C104.177 11.7132 104.98 12.7958 106.031 13.0123C111.377 14.2186 114.807 18.3324 119.257 20.8377C121.976 22.3533 123.923 24.704 126.642 26.2505C129.269 27.7352 131.679 29.7766 133.101 32.5913C136.871 34.7564 139.188 38.3443 142.186 41.2517C143.267 42.3034 144.503 43.1076 145.091 44.5613C145.369 45.2418 145.801 46.015 146.419 46.3862C149.293 48.2111 150.777 51.1804 152.878 53.6239C158.224 59.8409 162.488 66.8312 167.402 73.3575C167.958 74.0998 168.298 75.0277 168.607 75.9247C169.163 77.5331 169.689 78.9868 171.048 80.3168C172.377 81.554 173.18 83.3789 173.644 85.2966C174.107 87.1215 174.571 89.132 175.745 90.5548C180.164 95.8748 181.06 102.587 183.285 108.711C184.243 111.371 185.417 114.309 184.83 117.495C184.583 118.887 185.356 120.464 185.51 121.949C185.881 125.135 186.097 128.383 185.078 131.476C183.903 135.095 184.336 138.899 183.038 142.549C180.566 149.57 177.414 156.127 172.47 161.818C170.708 163.829 168.823 165.716 166.506 167.015H166.475ZM109.337 89.565C107.885 90.3383 108.009 91.792 107.885 93.0292C107.421 97.7306 107.051 102.432 106.773 107.133C106.68 108.463 106.711 109.732 105.907 110.907C104.455 113.134 105.258 114.619 107.39 116.041C109.214 117.279 110.079 119.722 112.798 120.093C112.953 119.444 113.262 118.918 113.2 118.392C112.52 112.515 113.138 106.762 114.405 101.009C115.518 95.9676 113.54 92.225 109.121 89.565L109.059 89.4722L109.337 89.5341V89.565ZM150.406 163.396H150.251C151.178 164.942 152.136 166.18 154.423 165.19C156.154 164.447 158.038 164.107 159.615 162.499C158.317 161.416 157.266 160.272 155.999 159.53C151.086 156.715 147.099 152.756 142.773 149.261C141.413 148.178 140.115 146.91 138.509 146.353C134.739 145.054 132.637 141.404 128.867 140.198C125.344 136.115 120.4 133.641 116.599 129.867C115.796 129.063 114.992 128.197 114.003 127.64C110.635 125.723 108.781 122.011 105.042 120.619C100.839 115.918 95.9878 111.866 91.3217 107.628C86.3465 103.113 80.8768 99.1225 76.7669 93.7716C76.4269 93.3076 76.0251 92.8127 75.5307 92.5653C72.8114 91.2353 71.3281 88.699 69.3813 86.6266C66.2293 83.2862 63.2628 79.7601 60.2036 76.3268C55.2284 70.8212 50.0059 65.4702 45.247 59.7791C39.9937 53.4693 35.1731 46.8192 30.1979 40.2929C29.3944 39.2413 28.7455 38.0041 27.5094 37.3545C27.0459 37.1071 26.2115 36.8906 25.9025 37.1071C23.2449 39.1176 19.8458 39.7053 17.0646 41.4374C15.365 42.5199 14.0054 43.8499 13.82 45.9223C13.6964 47.1595 12.8002 48.6751 14.3762 49.5102C15.5504 50.1597 16.5085 49.0462 17.5282 48.5513C18.5789 48.0564 19.6294 47.5615 20.711 47.0976C21.2363 46.8811 21.7927 46.6027 22.3489 46.5718C22.8742 46.5718 23.4923 46.6955 23.894 46.9739C24.6047 47.4997 23.9866 48.0874 23.6158 48.3348C22.2252 49.3555 20.7728 50.3144 19.3204 51.2423C18.0225 52.0774 16.6321 52.7888 15.396 53.6858C14.8398 54.1188 14.129 54.923 14.1908 55.4797C14.6234 58.8202 14.1909 62.2844 15.2415 65.563C15.5196 66.46 16.9719 66.924 17.6208 66.2435C20.1239 63.5216 23.4614 61.8514 26.2425 59.4697C27.046 58.7893 27.942 57.7995 29.1781 58.4491C29.5798 59.2223 28.9926 59.5625 28.5909 59.9337C25.5316 62.8102 22.4724 65.7177 19.3204 68.5324C16.6628 70.914 16.6011 70.8831 17.8681 74.3473C18.6406 76.4815 19.4441 78.6157 20.2476 80.7498C20.7729 82.1417 21.8853 82.5129 22.8742 81.4303C25.8098 78.1208 29.858 75.9866 32.5774 72.4605C33.7516 70.914 35.3275 69.8314 37.4906 70.017C37.6452 70.9449 37.3981 71.6254 36.8418 72.2131C33.1645 76.1103 29.7034 80.255 25.6861 83.8429C23.2449 86.008 22.6888 88.0185 23.7086 90.8022C24.0176 91.6683 24.0176 92.8436 25.0373 93.1839C26.397 93.6169 27.1386 92.4106 27.8802 91.6064C29.7343 89.6578 31.4957 87.6473 33.2262 85.6059C34.215 84.3997 35.2658 83.3171 36.6255 82.5129C36.9345 82.3273 37.4907 82.1108 37.707 82.2345C38.2323 82.5438 38.2632 83.1315 37.9233 83.6264C35.3276 87.3999 32.3302 90.926 29.1164 94.2046C27.8803 95.4418 27.4785 96.679 27.9112 98.2874C28.2511 99.5555 28.4365 100.886 28.8382 102.154C29.4562 104.009 31.0013 104.35 32.3301 102.989C36.8727 98.3183 41.3844 93.6169 45.927 88.9464C46.5759 88.266 47.4102 87.7092 48.2137 87.2143C48.4609 87.0596 49.0172 87.0287 49.2335 87.1834C49.7897 87.5545 49.697 88.2041 49.3879 88.699C48.9862 89.3485 48.4608 89.9053 47.9355 90.493C43.3929 95.6583 38.8504 100.824 34.2769 105.989C32.7318 107.721 32.4845 109.268 33.8133 111.031C34.9258 112.515 36.2546 113.845 37.7379 115.485C42.6822 111 46.0196 105.092 51.242 100.793C51.6746 102.061 51.242 102.896 50.7167 103.731C47.9664 107.876 45.0925 111.99 41.1989 115.175C38.5722 117.341 38.8813 119.66 40.6118 122.166C41.2607 123.094 42.1259 123.898 42.8985 124.733C44.289 126.279 44.8145 126.279 45.9579 124.702C50.6859 118.176 56.5571 112.639 62.2739 106.979C63.3246 105.927 64.7771 105.216 66.044 104.381C66.1676 104.288 66.5075 104.319 66.5384 104.381C66.6929 104.69 66.9709 105.154 66.8473 105.34C66.2293 106.298 65.5805 107.226 64.8388 108.092C60.5435 112.979 56.1864 117.804 51.9219 122.722C46.1742 129.342 44.6909 128.135 51.7365 136.053C52.1382 136.486 52.478 136.858 53.3433 136.827C56.4643 132.929 59.6473 128.908 62.892 124.888C64.0972 123.403 65.4259 122.011 66.7238 120.619C66.9401 120.372 67.4346 120.341 67.7745 120.217C67.8672 120.743 68.1762 121.392 67.9599 121.733C65.426 125.537 63.2318 129.589 60.1108 132.991C58.8129 134.414 57.7623 136.022 56.4953 137.445C55.0738 139.054 55.3829 140.848 56.7735 142.611C57.237 143.198 57.8241 143.724 58.4112 144.188C61.0997 146.26 62.2431 146.26 64.0663 143.508C67.6818 138.095 72.317 133.486 76.3342 128.352C77.8484 126.403 79.7334 124.764 81.5257 123.032C81.8965 122.661 82.6383 122.475 83.04 123.094C83.1945 123.31 83.1945 123.836 83.04 124.052C81.4022 126.372 79.7643 128.723 78.0338 130.981C73.9856 136.301 69.8758 141.528 65.8277 146.848C64.4371 148.704 64.6534 149.756 66.5384 151.024C67.1564 151.457 67.8671 151.797 68.5778 152.137C70.401 153.034 70.7411 152.972 72.0081 151.457C75.1909 147.652 78.3737 143.848 81.5566 140.043C81.8038 139.765 82.1129 139.487 82.4219 139.301C82.731 139.146 83.2253 138.961 83.5034 139.085C83.7506 139.208 83.936 139.734 83.8433 140.043C83.7197 140.569 83.5035 141.157 83.1636 141.59C80.2897 144.899 78.2193 148.859 74.8819 151.828C74.3257 152.323 73.7693 152.91 73.3985 153.56C72.8114 154.488 73.0587 155.354 73.9549 156.034C74.6347 156.529 75.4073 156.715 76.0871 156.189C76.8597 155.601 77.5394 154.921 78.1575 154.21C83.0709 148.611 87.9532 142.982 92.8975 137.414C94.1645 135.992 95.586 134.692 97.0075 133.393C97.162 133.239 97.78 133.301 97.9654 133.486C98.1508 133.672 98.1819 134.167 98.0892 134.445C97.9037 134.971 97.6256 135.497 97.3166 135.992C93.0831 142.58 87.8915 148.426 82.5455 154.179C81.6493 155.168 80.6295 156.065 79.7952 157.086C78.899 158.2 79.0536 159.158 80.0734 160.055C81.4022 161.2 82.8546 162.097 84.5851 162.499C86.2229 161.231 86.4082 159.189 87.5206 157.674C90.7344 153.374 94.6281 149.663 98.3672 145.796C98.4908 145.673 98.707 145.58 98.8924 145.549C99.0779 145.487 99.387 145.394 99.4488 145.456C99.6343 145.735 99.9431 146.106 99.8813 146.322C99.665 147.034 99.4178 147.807 98.9543 148.364C95.2461 152.756 92.3104 157.736 87.9224 161.571C86.3464 162.963 86.3155 164.478 87.5825 165.406C88.6022 166.149 89.8693 165.932 91.1053 164.509C93.083 162.19 94.8444 159.684 96.8839 157.395C99.9123 153.962 103.095 150.622 105.475 146.693C106.556 144.93 108.101 143.446 109.554 141.93C109.863 141.621 110.666 141.466 111.099 141.621C111.717 141.837 111.686 142.58 111.346 143.075C106.371 150.714 101.643 158.571 94.6898 164.819C93.7319 165.685 92.6503 166.582 92.3413 167.943C92.434 168.128 92.465 168.376 92.6195 168.468C93.7319 169.18 94.8443 169.891 96.0186 170.541C98.6143 171.994 100.808 171.5 102.508 169.056C103.157 168.128 103.682 167.107 104.3 166.118C106.649 162.406 109.368 158.973 112.644 155.973C113.355 155.292 114.189 154.797 115.332 155.818C111.902 160.365 108.472 164.911 105.042 169.458C104.579 170.077 104.115 170.695 103.806 171.376C103.373 172.242 103.806 172.799 104.702 172.984C106.093 173.294 107.545 173.386 108.318 171.964C111.315 166.396 116.074 162.066 119.411 156.746C119.72 156.282 120.06 155.756 120.524 155.478C120.956 155.23 121.605 155.076 122.069 155.199C122.718 155.385 122.811 156.127 122.563 156.622C121.853 157.952 121.08 159.282 120.184 160.519C117.434 164.386 114.591 168.221 111.81 172.056C111.346 172.706 111.748 173.819 112.52 173.788C114.467 173.727 116.352 174.221 118.33 173.943C120.709 173.603 122.316 172.83 122.656 170.293C122.78 169.396 123.058 168.345 123.645 167.664C126.673 164.169 128.62 160.055 130.907 156.127C131.339 155.385 132.266 154.859 133.008 154.302C133.132 154.21 133.935 154.643 133.904 154.735C133.564 156.189 133.317 157.705 132.73 159.097C130.845 163.643 128.311 167.85 125.561 171.902C126.333 172.458 127.106 172.273 127.786 172.056C130.567 171.252 132.977 169.489 136.005 169.273C136.407 169.273 136.963 168.623 137.149 168.19C137.551 167.138 137.705 165.994 138.014 164.88C139.065 161.2 140.672 157.797 143.422 154.983C143.762 154.643 144.534 154.364 144.967 154.519C145.307 154.643 145.616 155.385 145.616 155.88C145.678 158.261 144.442 160.241 143.206 162.19C142.124 163.922 140.826 165.561 141.321 167.912C145.307 167.85 147.934 165.685 150.375 163.21L150.406 163.396ZM175.714 114C173.304 115.577 171.388 116.846 169.441 118.052C167.803 119.104 166.073 119.97 164.126 120.31C163.848 120.372 163.323 120.155 163.199 119.939C163.045 119.66 163.106 119.196 163.261 118.887C163.91 117.464 165.022 116.474 166.444 115.701C168.823 114.433 171.141 113.01 173.428 111.618C174.046 111.216 174.787 110.69 174.633 109.824C174.046 106.886 173.984 103.762 171.326 101.566C170.77 101.813 170.152 101.937 169.719 102.277C165.671 105.247 161.19 107.505 156.833 110.01C156.524 110.196 156.092 110.412 155.752 110.319C155.505 110.257 155.196 109.824 155.165 109.546C155.103 108.711 155.721 108.185 156.246 107.628C158.811 104.968 162.21 103.453 165.208 101.35C171.11 97.2667 171.326 97.3285 167.216 91.1734C167.031 90.895 166.598 90.7713 166.289 90.5548C164.682 90.9569 163.632 92.1322 162.55 93.1839C159.676 96.0295 156.401 98.4111 153.125 100.731C152.909 100.886 152.322 100.824 152.136 100.638C151.951 100.453 151.889 99.803 152.044 99.6792C154.021 97.8853 155.257 95.5036 157.544 93.8953C159.707 92.3797 161.376 90.1527 163.292 88.266C164.404 87.1834 164.59 86.008 163.786 84.678C163.292 83.8738 162.766 83.0696 162.241 82.2655C160.418 79.5126 159.027 79.3271 156.803 81.585C155.999 82.4201 155.412 83.4099 154.639 84.245C151.611 87.4618 148.644 90.7094 145.492 93.8025C144.287 94.9778 142.68 95.782 141.228 96.7099C141.012 96.8337 140.424 96.679 140.239 96.4625C140.054 96.2769 140.116 95.813 140.146 95.5037C140.146 95.349 140.332 95.1634 140.455 95.0397C144.473 90.6785 147.872 85.7915 152.229 81.7087C153.898 80.1312 155.443 78.4301 156.957 76.698C157.451 76.1412 157.853 75.2443 157.297 74.6256C155.535 72.7698 154.886 70.3882 153.774 68.223C153.372 67.4498 152.6 67.2642 151.858 67.8828C151.271 68.3777 150.715 68.9035 150.251 69.5221C146.729 74.1307 142.464 77.9661 137.489 81.0592C136.902 81.4303 136.284 82.1417 135.357 80.8426C138.107 77.8424 140.888 74.7803 143.7 71.7182C145.647 69.6149 147.655 67.5426 149.54 65.3774C150.159 64.666 150.777 63.4907 150.128 62.7793C148.459 60.8926 148.057 58.2635 146.018 56.6241C144.905 55.7272 143.855 55.6035 143.02 56.7479C140.332 60.5214 136.716 63.4289 133.41 66.6147C133.132 66.8931 132.884 67.1714 132.575 67.3879C132.452 67.4807 132.081 67.4498 132.019 67.3879C131.834 67.1096 131.587 66.6456 131.679 66.4909C134.491 62.8721 137.365 59.3151 140.208 55.6963C142.031 53.4074 141.753 53.5311 140.455 50.933C139.003 48.0255 136.191 46.6027 134.121 44.4067C133.564 43.819 132.606 44.0046 132.081 44.6541C131.37 45.5511 130.721 46.5099 130.134 47.4688C126.179 54.026 120.122 58.449 114.034 62.8721C113.633 63.1505 113.262 63.2123 113.046 62.8721C112.86 62.5937 112.675 62.0988 112.798 61.9133C114.374 59.7791 115.734 57.3665 117.681 55.6034C121.111 52.4795 124.139 49.0771 127.044 45.5201C131.927 39.4578 131.03 40.9115 126.272 36.2101C123.83 33.7975 121.698 34.0141 119.535 36.705C116.043 40.9425 112.304 44.9325 107.267 49.3555C108.132 47.4688 108.41 46.5718 108.905 45.7985C111.501 41.7776 114.127 37.8494 117.65 34.478C119.658 32.5603 119.38 31.1684 117.186 29.2817C116.599 28.7868 116.043 28.261 115.394 27.828C113.911 26.7763 112.86 26.8691 112.026 28.3229C109.554 32.715 105.536 35.8389 102.384 39.6743C102.168 39.9527 101.766 40.2001 101.426 40.262C101.117 40.3238 100.747 40.1073 100.407 39.9527C100.283 39.8908 100.16 39.6124 100.19 39.5196C100.376 38.9938 100.53 38.4371 100.87 38.0041C103.528 34.5399 106.34 31.1375 108.936 27.6115C111.191 24.5494 111.068 24.4566 107.761 22.6626C106.587 22.0131 105.536 21.1161 104.362 20.4975C102.539 19.5696 100.5 20.1882 99.4488 22.044C96.3587 27.395 92.0941 31.7871 87.5825 35.9318C85.9447 37.4164 84.7704 39.6743 82.1437 39.829C80.9077 39.8908 82.2364 37.1999 85.2339 33.7666C85.3575 33.6119 85.4502 33.4573 85.6047 33.3336C90.3327 29.3435 93.5775 24.1163 97.6565 19.6314C98.6762 18.487 98.5525 17.5591 97.3474 16.7858C95.4005 15.5177 93.5465 14.1258 91.2289 13.5381C89.5911 13.1051 88.9731 13.3525 87.9842 14.9609C86.0065 18.2086 84.5851 21.7966 81.4949 24.3329C80.8769 24.8277 80.2897 25.8484 79.1464 25.1061C80.0425 20.0645 84.3069 16.7858 86.0374 12.3319C83.967 10.7235 81.8039 9.88835 79.5481 9.33161C76.6124 8.58928 75.0055 9.5172 73.5222 12.2391C71.0501 16.724 68.9796 21.4563 65.3332 25.2298C64.9314 25.6628 64.4679 26.034 63.9426 25.5391C63.7571 25.3536 63.6954 24.8277 63.819 24.5184C64.8388 22.0749 65.9821 19.6933 67.4345 17.4044C69.0723 14.8372 70.4938 12.1463 71.9462 9.48627C72.3479 8.74394 72.1316 7.93973 71.2046 7.72321C69.505 7.32112 67.6817 7.29018 66.0748 6.7025C63.5408 5.77459 61.8413 6.94998 60.5125 8.62022C59.3382 10.1049 58.6275 11.8988 57.6387 13.5381C56.1863 15.9816 54.8266 18.487 52.6635 20.4356C52.5399 20.5284 52.2309 20.5593 52.1073 20.4975C51.8292 20.3119 51.3964 20.0335 51.3964 19.7861C51.3964 19.2293 51.5509 18.6726 51.7672 18.1468C52.9724 15.1465 54.1468 12.1463 56.5262 9.76463C56.928 9.36253 57.206 8.68207 56.6807 8.21811C56.3099 7.90881 55.661 7.816 55.1666 7.816C53.9614 7.816 52.9106 8.18716 51.9836 9.02228C47.1938 13.1979 43.702 18.3942 39.9629 23.4049C39.4994 24.0235 40.0556 25.0752 40.859 25.0442C46.205 24.8896 50.5004 27.2093 54.7957 29.9931C58.6894 32.4984 62.0267 35.7152 65.7349 38.3752C73.5531 43.9736 80.1969 50.8093 87.3661 57.0881C89.2203 58.7274 91.3215 60.1811 92.9284 62.037C96.6675 66.3672 100.623 70.5119 104.486 74.7494C111.346 82.2036 117.743 90.029 124.356 97.6688C125.097 98.5348 125.839 99.4009 126.735 100.143C129.362 102.37 131.803 104.876 134.028 107.381C137.427 111.216 140.703 115.175 144.102 119.011C147.655 123.001 150.777 127.362 155.628 130.053C155.937 130.238 156.277 130.548 156.401 130.888C158.008 134.878 161.747 137.291 164.281 140.569C165.888 142.642 167.309 144.961 169.596 146.539C171.295 147.714 173.149 147.312 173.86 145.456C174.633 143.353 175.189 141.157 175.961 139.023C177.352 135.249 177.229 131.414 176.889 127.362C173.984 128.321 171.419 129.187 168.823 129.991C168.267 130.177 167.68 130.084 167.278 129.527C166.784 128.847 167.371 128.444 167.804 128.197C170.121 126.836 172.47 125.475 174.849 124.176C175.9 123.619 176.981 123.155 177.599 122.166C178.372 120.959 177.167 120.093 176.858 119.073C176.425 117.65 176.147 116.165 175.683 114.093L175.714 114ZM102.632 81.4612L102.755 81.3684C101.334 79.8219 99.9433 78.2445 98.4909 76.7289C98.2746 76.4814 97.811 76.3268 97.4711 76.3268C96.7603 76.3268 96.5131 76.8526 96.4513 77.4094C95.586 83.3789 94.5045 89.3176 94.0101 95.2871C93.7938 97.8853 91.8469 100.576 93.392 102.989C94.7826 105.154 96.9765 106.855 98.8924 108.68C99.5723 109.33 100.376 109.886 101.179 110.381C102.199 111.031 103.219 110.69 103.404 109.639C103.682 107.969 104.177 106.237 103.96 104.597C103.59 101.721 104.208 98.9679 104.517 96.1841C104.826 93.3695 105.227 90.5857 105.66 87.7711C105.907 86.1936 105.66 84.7708 104.517 83.5645C103.868 82.8531 103.25 82.1417 102.632 81.4303V81.4612ZM79.5481 90.3383C80.9696 88.4206 81.0622 86.0389 81.2167 83.9357C81.7421 77.5022 83.2562 71.2851 84.6777 65.0372C84.8322 64.3567 84.925 63.2742 84.5232 62.903C81.5258 59.9646 79.4244 56.1911 75.9634 53.6858C75.6853 53.4693 75.2218 53.3146 74.8819 53.3765C74.2639 53.4693 73.924 53.9951 73.924 54.5518C73.924 58.6965 74.2637 62.8721 73.8002 66.9549C73.2131 72.4605 73.9238 77.8733 73.8002 83.348C73.8002 84.3068 73.8312 85.4204 74.6965 85.9462C76.5815 87.0287 77.1068 89.4104 79.4862 90.3383H79.5481ZM87.9533 66.8312C87.3353 69.9551 86.5319 72.6461 86.2847 75.3989C85.7593 80.8427 84.6468 86.1317 82.9163 91.328C82.6691 92.0704 82.3292 92.8127 82.7927 93.4931C84.3378 95.6583 86.0065 97.7925 88.6023 98.8751C89.5293 99.2462 90.1783 98.7513 90.3328 97.9471C91.5998 90.7094 92.6812 83.4408 94.1027 76.265C94.8135 72.7698 93.5466 70.45 90.7036 68.6251C89.931 68.1303 89.1585 67.6044 87.9533 66.8312ZM69.3196 47.809C68.8252 47.1595 68.5161 46.6646 68.1144 46.2934C67.62 45.7985 67.2491 44.9325 66.2911 45.2727C65.395 45.582 65.4569 46.4171 65.426 47.1595C65.2097 52.7888 64.9933 58.4181 64.0663 63.9856C63.6028 66.7693 63.7264 69.6149 63.5101 72.4296C63.4483 73.4193 63.5719 74.4091 64.468 74.9349C66.5075 76.1103 67.0637 78.7085 69.2578 79.6982C70.8646 77.6259 70.0611 75.1205 70.5246 72.8626C70.741 71.78 70.6175 70.6047 70.463 69.4912C69.9994 66.0889 70.6174 62.7484 70.8028 59.3769C70.9264 57.119 71.1428 54.8921 71.2046 52.6341C71.2664 50.7165 70.9574 48.8606 69.2887 47.809H69.3196ZM52.8489 61.8823C53.0343 60.0884 53.2506 59.346 53.1888 58.6346C52.8798 55.2323 52.9725 51.8299 53.4051 48.4585C53.8687 44.9015 54.3631 41.3445 54.9812 37.7875C55.2593 36.0864 54.8575 34.8492 53.3742 33.8903C52.4162 33.2717 51.5511 32.4985 50.5622 31.8489C48.9862 30.7973 47.9356 31.2922 47.8428 33.0552C47.5956 38.5299 47.6882 44.0355 46.9466 49.4483C46.3903 53.4383 47.3174 56.4386 50.2531 59.0677C50.9329 59.6863 51.5202 60.4286 52.8799 61.8514L52.8489 61.8823ZM58.0713 38.1278C57.7314 39.9836 57.4223 41.0662 57.3914 42.1487C57.1442 47.2213 56.7116 52.2939 55.6609 57.2737C55.321 58.9439 55.3519 60.6451 55.1356 62.3463C54.9193 63.8 55.3829 64.9135 56.5262 65.8414C57.546 66.6766 58.1949 67.9447 59.74 68.254C60.7597 67.5117 60.6979 66.3363 60.8524 65.2228C61.3159 61.8514 61.8413 58.5109 62.2739 55.1086C62.6756 51.9228 62.8611 48.706 63.3247 45.5201C63.7264 42.9529 62.8301 41.128 60.6979 39.7052C60.049 39.2722 59.4001 38.9011 58.0713 38.0969V38.1278ZM117.032 123.96C117.341 124.362 117.804 124.98 118.299 125.568C118.422 125.723 118.577 125.815 118.732 125.939C119.411 126.496 120.956 126.187 121.235 125.444C121.482 124.733 121.822 124.021 121.853 123.279C122.069 118.732 122.78 114.278 123.707 109.824C124.448 106.267 123.367 103.515 120.555 101.319C119.689 100.638 119.133 99.1225 117.866 99.4937C116.383 99.8958 117.186 101.38 117.094 102.401C116.908 104.443 116.816 106.546 116.723 108.556C116.599 112.175 115.178 115.547 115.271 119.165C115.301 120.959 115.425 122.537 117.032 123.96ZM39.9011 47.6544C40.7045 48.4585 41.477 49.2937 42.3422 50.0669C42.5586 50.2525 43.0839 50.3453 43.3621 50.2525C43.6402 50.1597 44.0111 49.7576 44.0111 49.4792C44.3201 42.922 44.5671 36.3339 44.8143 29.7457C44.8452 28.9106 44.32 28.2919 43.5475 28.0445C42.6513 27.7352 41.6934 27.5805 40.7355 27.4568C38.8814 27.2712 38.325 27.6733 38.2632 29.591C38.1396 33.7048 38.325 37.8494 38.0469 41.9632C37.8923 44.2211 38.2632 46.046 39.8701 47.6544H39.9011ZM130.072 112.206C129.671 111.835 129.238 111.464 128.867 111.062C128.311 110.474 127.693 109.979 126.859 110.165C125.654 110.412 125.592 111.495 125.623 112.392C125.684 117.124 125.221 121.764 124.108 126.372C123.676 128.135 124.386 129.713 125.623 130.981C125.962 131.321 126.673 131.445 127.229 131.476C127.971 131.538 128.126 130.857 128.218 130.362C129.084 124.98 129.918 119.629 130.721 114.247C130.845 113.505 130.876 112.763 130.072 112.206ZM134.368 136.517C135.758 131.321 136.562 126.372 136.809 121.3C136.871 120.093 136.716 119.073 135.758 118.268C135.171 117.774 134.491 116.938 133.935 117C132.73 117.124 132.792 118.33 132.761 119.227C132.637 123.527 131.03 127.609 130.69 131.909C130.474 134.662 131.618 135.62 134.337 136.456L134.368 136.517ZM140.981 141.435C141.197 141.157 141.537 140.879 141.599 140.569C142.186 137.26 142.495 133.888 143.329 130.61C143.978 128.073 142.835 126.248 141.568 124.393C141.413 124.145 140.919 123.991 140.579 124.021C140.239 124.021 139.714 124.3 139.652 124.547C138.91 128.97 138.231 133.424 137.489 137.847C137.242 139.363 138.509 140.755 140.424 141.497C140.579 141.559 140.795 141.497 141.012 141.466L140.981 141.435ZM148.397 147.188C149.819 143.044 149.51 139.239 149.88 135.528C150.066 133.765 149.139 132.682 147.964 131.661C147.346 131.105 146.234 131.352 146.141 132.094C145.616 136.022 145.091 139.92 144.627 143.848C144.535 144.683 145.06 145.271 145.74 145.704C146.543 146.199 147.408 146.632 148.397 147.188ZM161.129 156.56C161.438 156.251 161.901 156.034 161.932 155.756C162.21 153.158 162.488 150.591 162.581 147.993C162.581 147.374 161.963 146.663 161.469 146.137C160.294 144.899 159.027 145.209 158.687 146.848C158.255 148.828 157.915 150.869 157.73 152.88C157.544 154.581 158.595 155.663 160.109 156.344C160.449 156.498 160.851 156.498 161.16 156.56H161.129ZM154.299 150.9C154.454 150.653 154.979 150.219 155.01 149.756C155.288 146.446 155.536 143.106 155.659 139.765C155.659 139.023 154.825 138.497 154.052 138.435C153.187 138.342 152.507 138.775 152.538 139.672C152.662 142.487 152.198 145.24 151.642 147.962C151.487 148.673 151.58 149.446 151.704 150.158C151.796 150.9 153.558 151.519 154.33 150.9H154.299ZM34.3388 40.3857C35.544 37.7566 34.9567 35.6843 35.2039 33.6738C35.3275 32.6531 35.8839 31.2303 34.5242 30.7663C33.6589 30.457 32.8864 31.5396 32.2375 32.2201C30.0744 34.4264 30.0948 36.6122 32.2992 38.7773C32.8245 39.2722 33.4426 39.7052 34.3388 40.3857ZM165.455 157.395C166.413 156.931 166.598 156.003 166.691 155.137C166.784 154.24 166.629 152.941 165.764 152.787C164.157 152.508 164.991 153.962 164.837 154.673C164.682 155.385 164.652 156.096 164.652 156.808C164.652 157.272 164.991 157.457 165.455 157.364V157.395Z"
        fill="url(#paint0_radial_0_1)"/>
    <path
        d="M150.406 163.396C150.128 162.932 149.757 162.499 149.633 162.004C149.479 161.416 149.819 160.829 150.467 160.829C151.24 160.829 151.24 161.54 151.086 162.004C150.931 162.499 150.529 162.901 150.22 163.365H150.375L150.406 163.396Z"
        fill="url(#paint1_radial_0_1)"/>
    <path
        d="M7.53569 360.242C6.36087 359.049 5.97483 357.537 5.42099 356.025C4.38042 353.169 4.09513 350.078 2.8196 347.307C3.12169 345.61 1.82938 344.333 1.66155 342.805C1.49372 341.326 1.34267 339.814 0.855962 338.454C1.2527e-05 336.102 0.537061 333.649 -2.52196e-06 331.297C0.805593 329.164 -0.369242 326.627 1.22516 324.645C1.2923 322.696 2.29931 321.05 2.8196 319.253C3.40701 317.186 4.61541 315.675 5.94129 314.247C7.36786 312.701 8.69374 311.172 9.58326 309.224C10.0028 308.3 10.842 307.577 11.4462 306.754C12.6714 305.074 13.9805 303.462 15.2392 301.832C16.8168 299.8 18.9651 298.237 20.9287 296.557C23.7483 294.122 26.5679 291.736 29.6225 289.62C33.0966 287.2 36.5036 284.681 40.5148 283.253C42.7134 281.405 45.5666 281.002 47.9666 279.607C49.7288 278.566 51.6925 277.961 53.4547 276.869C54.8142 276.029 56.5429 275.693 58.1541 275.458C60.1848 275.156 62.1988 274.887 64.1121 274.114C64.2128 274.081 64.2967 274.013 64.3974 274.013C67.1331 274.064 69.8352 273.308 72.5877 273.627C73.8464 273.778 74.9709 274.249 76.0954 274.753C77.0352 275.173 77.6898 275.895 78.1261 276.987C79.4184 280.263 81.5331 283.034 83.8828 285.554C85.3429 287.133 87.0213 288.595 88.8171 289.72C90.68 290.896 92.308 292.324 93.9695 293.735C95.6814 295.18 96.4367 297.347 97.3094 299.346C97.8297 300.556 98.1486 301.816 97.9304 303.311C97.6954 304.923 97.964 306.637 97.8129 308.333C97.729 309.291 97.5444 310.181 97.3766 311.105C96.487 315.792 94.2381 319.992 92.9625 324.544C92.8283 325.015 92.4423 325.435 92.157 325.855C91.8045 326.375 91.2171 326.812 91.0996 327.383C90.445 330.289 88.2129 332.154 86.8534 334.573C86.0311 336.051 84.7555 337.11 83.9164 338.588C83.1108 340.016 82.0031 341.326 80.4758 342.099C79.301 344.148 77.3541 345.408 75.7765 347.038C75.2059 347.626 74.7695 348.298 73.9807 348.617C73.6114 348.768 73.1919 349.003 72.9905 349.339C72.0002 350.902 70.3891 351.708 69.0632 352.85C65.6897 355.756 61.8967 358.075 58.3554 360.746C57.9526 361.048 57.4491 361.233 56.9624 361.401C56.0897 361.703 55.3009 361.989 54.5792 362.728C53.9079 363.45 52.9177 363.887 51.8771 364.139C50.8869 364.391 49.796 364.643 49.0239 365.281C46.1372 367.684 42.4952 368.171 39.1721 369.38C37.7288 369.901 36.1344 370.539 34.4057 370.22C33.6505 370.086 32.7945 370.506 31.9889 370.59C30.2602 370.791 28.498 370.909 26.8197 370.355C24.856 369.716 22.7917 369.951 20.8113 369.246C17.0015 367.902 13.4434 366.188 10.3553 363.501C9.26435 362.543 8.24059 361.518 7.53569 360.259L7.53569 360.242ZM49.561 329.181C49.1414 328.391 48.3526 328.458 47.6813 328.391C45.1302 328.139 42.5792 327.938 40.0281 327.786C39.3064 327.736 38.6183 327.753 37.9805 327.316C36.7722 326.527 35.9666 326.963 35.1945 328.122C34.5232 329.113 33.1973 329.584 32.9959 331.062C33.3484 331.146 33.6337 331.314 33.919 331.281C37.1078 330.911 40.2295 331.247 43.3512 331.936C46.0869 332.54 48.1176 331.465 49.561 329.063L49.6113 329.03L49.5778 329.181L49.561 329.181ZM9.49933 351.506L9.49933 351.422C8.66017 351.926 7.98883 352.447 8.5259 353.69C8.9287 354.631 9.11331 355.656 9.98603 356.512C10.5735 355.807 11.1944 355.236 11.5972 354.547C13.1245 351.876 15.2728 349.709 17.1693 347.357C17.7567 346.618 18.4448 345.912 18.7469 345.039C19.4518 342.989 21.4322 341.847 22.0868 339.798C24.3022 337.883 25.6448 335.195 27.6924 333.128C28.1288 332.692 28.5987 332.255 28.9008 331.717C29.9414 329.886 31.9554 328.878 32.7106 326.846C35.2617 324.561 37.4603 321.924 39.7596 319.387C42.2099 316.682 44.375 313.709 47.2785 311.475C47.5302 311.29 47.7988 311.072 47.933 310.803C48.6547 309.325 50.0309 308.518 51.1554 307.46C52.968 305.746 54.8813 304.134 56.7442 302.471C59.7317 299.766 62.6352 296.927 65.7233 294.34C69.1471 291.484 72.7555 288.864 76.2968 286.159C76.8674 285.722 77.5387 285.369 77.8912 284.697C78.0254 284.446 78.1429 283.992 78.0254 283.824C76.9345 282.379 76.6156 280.531 75.6758 279.019C75.0884 278.096 74.3667 277.356 73.2422 277.256C72.5709 277.188 71.7485 276.701 71.2953 277.558C70.9429 278.196 71.5471 278.717 71.8156 279.272C72.0842 279.843 72.3527 280.414 72.6045 281.002C72.7219 281.287 72.873 281.59 72.8898 281.892C72.8898 282.178 72.8226 282.514 72.6716 282.732C72.3863 283.118 72.0674 282.782 71.9331 282.581C71.3793 281.825 70.859 281.035 70.3555 280.246C69.9023 279.54 69.5163 278.784 69.0296 278.112C68.7946 277.81 68.3583 277.424 68.0562 277.457C66.2436 277.692 64.3639 277.457 62.5848 278.028C62.0981 278.18 61.8464 278.969 62.2156 279.322C63.6925 280.683 64.5988 282.497 65.8911 284.009C66.2604 284.446 66.7974 284.933 66.445 285.605C66.0254 285.823 65.8408 285.504 65.6394 285.285C64.0785 283.622 62.5009 281.959 60.9736 280.246C59.6813 278.801 59.6981 278.768 57.8184 279.456C56.6603 279.876 55.5023 280.313 54.3442 280.75C53.589 281.035 53.3876 281.64 53.975 282.178C55.7708 283.774 56.9289 285.974 58.8421 287.453C59.6813 288.091 60.2687 288.948 60.168 290.123C59.6645 290.207 59.2953 290.073 58.9764 289.771C56.8617 287.772 54.6128 285.89 52.6659 283.706C51.4911 282.379 50.4002 282.077 48.8897 282.631C48.4197 282.799 47.782 282.799 47.5974 283.354C47.3624 284.093 48.0169 284.496 48.4533 284.899C49.5106 285.907 50.6016 286.864 51.7093 287.805C52.3638 288.343 52.9512 288.914 53.3876 289.653C53.4883 289.821 53.6058 290.123 53.5387 290.241C53.3708 290.527 53.0519 290.543 52.7834 290.359C50.7358 288.948 48.8225 287.318 47.0435 285.571C46.3722 284.899 45.7009 284.681 44.8281 284.916C44.14 285.101 43.4183 285.201 42.7302 285.42C41.7232 285.756 41.5386 286.596 42.2771 287.318C44.8113 289.788 47.3624 292.24 49.8967 294.71C50.2659 295.062 50.568 295.516 50.8365 295.953C50.9205 296.087 50.9372 296.39 50.8533 296.507C50.6519 296.809 50.2995 296.759 50.0309 296.591C49.6785 296.373 49.3764 296.087 49.0575 295.801C46.2547 293.332 43.4519 290.863 40.6491 288.376C39.7092 287.536 38.87 287.402 37.9134 288.124C37.1078 288.729 36.3861 289.452 35.4966 290.258C37.9302 292.946 41.1358 294.76 43.4687 297.599C42.7806 297.834 42.3274 297.599 41.8743 297.313C39.6253 295.818 37.3931 294.256 35.6645 292.139C34.4896 290.711 33.2309 290.879 31.8714 291.82C31.3679 292.173 30.9316 292.643 30.4784 293.063C29.6393 293.819 29.6393 294.105 30.4952 294.726C34.0365 297.297 37.0407 300.488 40.112 303.596C40.6827 304.167 41.0687 304.957 41.5218 305.646C41.5722 305.713 41.5554 305.898 41.5218 305.914C41.354 305.998 41.1022 306.15 41.0015 306.082C40.4813 305.746 39.9778 305.394 39.5078 304.99C36.8561 302.655 34.2379 300.287 31.5693 297.969C27.9777 294.844 28.6323 294.038 24.3357 297.868C24.1008 298.086 23.8994 298.271 23.9162 298.741C26.0309 300.438 28.2127 302.168 30.3945 303.932C31.2001 304.587 31.9554 305.31 32.7106 306.015C32.8449 306.133 32.8616 306.402 32.9288 306.586C32.6435 306.637 32.291 306.805 32.1064 306.687C30.0421 305.31 27.8435 304.117 25.9973 302.42C25.2253 301.715 24.3525 301.144 23.5805 300.455C22.7078 299.682 21.7343 299.85 20.7777 300.606C20.4588 300.858 20.1735 301.177 19.9217 301.496C18.7973 302.958 18.7973 303.579 20.291 304.571C23.228 306.536 25.7288 309.056 28.5148 311.24C29.5721 312.063 30.4616 313.087 31.4015 314.062C31.6029 314.263 31.7036 314.667 31.3679 314.885C31.2505 314.969 30.9651 314.969 30.8477 314.885C29.5889 313.995 28.3134 313.104 27.0882 312.164C24.2015 309.963 21.3651 307.729 18.4784 305.528C17.4714 304.772 16.9008 304.89 16.2126 305.914C15.9777 306.25 15.7931 306.637 15.6084 307.023C15.1217 308.014 15.1553 308.199 15.9777 308.888C18.042 310.618 20.1064 312.348 22.1707 314.079C22.3218 314.213 22.4728 314.381 22.5735 314.549C22.6574 314.717 22.7581 314.986 22.691 315.137C22.6239 315.271 22.3385 315.372 22.1707 315.322C21.8854 315.254 21.5665 315.137 21.3315 314.952C19.5357 313.39 17.3875 312.264 15.7763 310.45C15.5078 310.148 15.1888 309.845 14.8364 309.644C14.3329 309.325 13.863 309.459 13.4938 309.946C13.2252 310.316 13.1245 310.736 13.4098 311.105C13.7287 311.525 14.098 311.895 14.484 312.231C17.5217 314.902 20.5763 317.556 23.5973 320.244C24.3693 320.932 25.0742 321.705 25.7791 322.478C25.863 322.562 25.8295 322.898 25.7288 322.999C25.6281 323.1 25.3595 323.116 25.2085 323.066C24.9232 322.965 24.6378 322.814 24.3693 322.646C20.7945 320.345 17.6224 317.522 14.5007 314.616C13.9637 314.129 13.477 313.575 12.9231 313.121C12.3189 312.634 11.7986 312.718 11.3119 313.272C10.6909 313.995 10.2042 314.784 9.98604 315.725C10.6742 316.615 11.7819 316.716 12.6042 317.321C14.9371 319.068 16.9511 321.184 19.049 323.217C19.1162 323.284 19.1665 323.402 19.1833 323.503C19.2169 323.603 19.2672 323.772 19.2336 323.805C19.0826 323.906 18.8812 324.074 18.7637 324.04C18.3777 323.923 17.9581 323.788 17.656 323.536C15.2728 321.52 12.5707 319.925 10.4895 317.539C9.7343 316.682 8.91193 316.666 8.40843 317.354C8.00564 317.909 8.12311 318.598 8.89513 319.269C10.1539 320.345 11.5133 321.302 12.7553 322.411C14.6182 324.057 16.4308 325.787 18.5623 327.081C19.5189 327.669 20.3245 328.509 21.1469 329.298C21.3148 329.466 21.3987 329.903 21.3147 330.138C21.1973 330.474 20.7945 330.457 20.5259 330.273C16.3805 327.568 12.1175 324.998 8.72729 321.218C8.25736 320.697 7.77066 320.109 7.03219 319.941C6.93149 319.992 6.79723 320.009 6.74688 320.093C6.36086 320.697 5.97485 321.302 5.6224 321.94C4.83359 323.352 5.10212 324.544 6.42799 325.468C6.93149 325.821 7.48533 326.107 8.0224 326.442C10.0364 327.719 11.8993 329.198 13.5273 330.978C13.8965 331.365 14.1651 331.818 13.6112 332.44C11.1441 330.575 8.67694 328.71 6.2098 326.846C5.87414 326.594 5.53848 326.342 5.16925 326.174C4.69932 325.939 4.39721 326.174 4.29651 326.661C4.12868 327.417 4.07833 328.206 4.85036 328.626C7.87135 330.256 10.221 332.843 13.1077 334.657C13.3595 334.825 13.6448 335.01 13.7958 335.262C13.9301 335.497 14.014 335.85 13.9469 336.102C13.8462 336.455 13.4434 336.505 13.1749 336.371C12.4532 335.984 11.7315 335.564 11.0602 335.077C8.96225 333.582 6.88114 332.037 4.80002 330.525C4.44756 330.273 3.84337 330.491 3.86015 330.911C3.89372 331.969 3.62518 332.994 3.77623 334.069C3.96085 335.363 4.38044 336.236 5.75667 336.421C6.24338 336.488 6.814 336.639 7.18323 336.959C9.07974 338.605 11.3119 339.663 13.4434 340.906C13.8462 341.142 14.1315 341.645 14.4336 342.049C14.484 342.116 14.249 342.553 14.1987 342.536C13.4098 342.351 12.5875 342.217 11.8322 341.897C9.36506 340.873 7.08254 339.495 4.88393 338C4.58184 338.42 4.68253 338.84 4.80002 339.21C5.23638 340.722 6.19304 342.032 6.31052 343.678C6.31052 343.896 6.66295 344.199 6.89792 344.3C7.46855 344.518 8.08954 344.602 8.69375 344.77C10.691 345.341 12.5371 346.215 14.0644 347.71C14.249 347.895 14.4 348.315 14.3161 348.55C14.249 348.735 13.8462 348.903 13.5777 348.903C12.2853 348.936 11.2112 348.264 10.1539 347.592C9.21402 347.004 8.32449 346.299 7.04896 346.568C7.08253 348.735 8.25737 350.162 9.60003 351.49L9.49933 351.506ZM36.3022 365.265C35.4463 363.954 34.7582 362.913 34.1036 361.854C33.533 360.964 33.063 360.023 32.8784 358.965C32.8449 358.814 32.9624 358.528 33.0798 358.461C33.2309 358.377 33.4826 358.411 33.6505 358.495C34.4225 358.847 34.9596 359.452 35.3791 360.225C36.0672 361.518 36.8393 362.778 37.5945 364.022C37.8127 364.358 38.098 364.761 38.5679 364.677C40.1624 364.357 41.8575 364.324 43.0491 362.879C42.9148 362.577 42.8477 362.241 42.6631 362.006C41.0519 359.805 39.8267 357.369 38.4673 355C38.3666 354.832 38.2491 354.597 38.2994 354.413C38.333 354.278 38.568 354.11 38.719 354.093C39.1722 354.06 39.4575 354.396 39.7596 354.681C41.2029 356.076 42.0253 357.923 43.1666 359.553C45.382 362.762 45.3484 362.879 48.6883 360.645C48.8393 360.544 48.9065 360.309 49.0239 360.141C48.8058 359.267 48.168 358.696 47.5974 358.108C46.0533 356.546 44.761 354.765 43.5022 352.985C43.4183 352.867 43.4519 352.548 43.5526 352.447C43.6533 352.346 44.0057 352.313 44.0729 352.397C45.0463 353.472 46.3386 354.144 47.2113 355.387C48.0337 356.563 49.2421 357.47 50.2659 358.511C50.8533 359.116 51.4911 359.217 52.2128 358.78C52.6491 358.511 53.0855 358.226 53.5219 357.94C55.0156 356.949 55.1163 356.193 53.8911 354.984C53.4379 354.547 52.9009 354.228 52.4477 353.808C50.7023 352.162 48.94 350.549 47.2617 348.835C46.6239 348.18 46.1876 347.307 45.6841 346.517C45.6169 346.399 45.7009 346.08 45.8183 345.98C45.919 345.879 46.1708 345.912 46.3386 345.929C46.4225 345.929 46.5232 346.03 46.5904 346.097C48.9568 348.281 51.6086 350.129 53.824 352.497C54.6799 353.405 55.603 354.245 56.5428 355.068C56.8449 355.337 57.3317 355.555 57.6673 355.252C58.6743 354.295 59.9666 353.942 61.1415 353.337C61.5611 353.119 61.6618 352.699 61.3261 352.296C61.0576 351.977 60.7722 351.674 60.4366 351.422C57.9359 349.507 55.8547 347.189 54.1764 344.485C53.975 344.165 53.589 343.829 54.2939 343.325C55.9219 344.82 57.5834 346.332 59.245 347.861C60.3862 348.919 61.5107 350.011 62.6855 351.036C63.0715 351.372 63.7093 351.708 64.0953 351.355C65.1191 350.448 66.5457 350.23 67.4352 349.121C67.9219 348.516 67.989 347.945 67.3681 347.491C65.3205 346.03 63.7429 344.065 62.0142 342.267C61.8631 342.116 61.7121 341.981 61.5946 341.813C61.5443 341.746 61.561 341.545 61.5946 341.511C61.7457 341.41 61.9974 341.276 62.0813 341.326C64.045 342.855 65.975 344.417 67.9387 345.963C69.1806 346.954 69.1135 346.803 70.5233 346.097C72.1009 345.308 72.873 343.779 74.0646 342.653C74.3835 342.351 74.2828 341.83 73.9303 341.545C73.4436 341.158 72.9233 340.806 72.403 340.486C68.845 338.336 66.445 335.044 64.045 331.734C63.8939 331.516 63.8604 331.314 64.045 331.197C64.196 331.096 64.4645 330.995 64.5652 331.062C65.7233 331.919 67.0324 332.658 67.989 333.716C69.6842 335.581 71.5303 337.227 73.4604 338.806C76.7499 341.461 75.9611 340.974 78.5121 338.387C79.8212 337.059 79.7037 335.9 78.2436 334.724C75.9443 332.826 73.7793 330.793 71.3793 328.055C72.403 328.526 72.8898 328.677 73.3093 328.946C75.4912 330.357 77.6226 331.785 79.452 333.7C80.4926 334.792 81.2478 334.64 82.2716 333.448C82.5401 333.128 82.8255 332.826 83.0604 332.473C83.6311 331.667 83.5807 331.096 82.7919 330.642C80.4087 329.298 78.7136 327.114 76.6324 325.401C76.4814 325.283 76.3471 325.065 76.3135 324.88C76.28 324.712 76.3975 324.511 76.4814 324.326C76.5149 324.259 76.666 324.192 76.7163 324.208C77.0017 324.309 77.3037 324.393 77.5387 324.578C79.4184 326.023 81.2646 327.551 83.1779 328.962C84.8394 330.189 84.8898 330.122 85.8632 328.324C86.2157 327.686 86.7024 327.114 87.038 326.476C87.5415 325.485 87.2059 324.376 86.1989 323.805C83.2954 322.125 80.9121 319.807 78.6632 317.354C77.8576 316.464 76.6324 315.826 76.5485 314.398C76.5149 313.726 77.9751 314.448 79.838 316.078C79.922 316.145 80.0059 316.195 80.073 316.279C82.238 318.849 85.0744 320.613 87.508 322.831C88.129 323.385 88.6325 323.318 89.052 322.663C89.7402 321.604 90.4954 320.597 90.8143 319.337C91.0493 318.446 90.915 318.11 90.0423 317.573C88.28 316.498 86.3331 315.725 84.9569 314.045C84.6884 313.709 84.1345 313.39 84.5373 312.768C87.273 313.256 89.052 315.574 91.4688 316.514C92.3416 315.389 92.7947 314.213 93.0968 312.987C93.4996 311.391 92.9961 310.517 91.5192 309.711C89.0856 308.367 86.5178 307.241 84.4702 305.259C84.2352 305.041 84.0338 304.789 84.3024 304.503C84.4031 304.402 84.6884 304.369 84.8562 304.436C86.1821 304.99 87.4744 305.612 88.7164 306.402C90.1094 307.292 91.5695 308.065 93.0129 308.854C93.4157 309.073 93.8521 308.955 93.9695 308.451C94.1877 307.527 94.2045 306.536 94.5234 305.662C95.0269 304.285 94.3891 303.361 93.4828 302.639C92.6772 302 91.7038 301.614 90.8143 301.076C89.4884 300.287 88.129 299.548 87.0716 298.372C87.0213 298.305 87.0045 298.137 87.038 298.069C87.1387 297.918 87.2898 297.683 87.4241 297.683C87.7262 297.683 88.0283 297.767 88.3136 297.885C89.9415 298.54 91.5695 299.178 92.8618 300.472C93.08 300.69 93.4493 300.841 93.701 300.556C93.8688 300.354 93.9192 300.001 93.9192 299.732C93.9192 299.077 93.7178 298.506 93.2647 298.002C90.9989 295.398 88.1793 293.5 85.4604 291.467C85.1248 291.215 84.5541 291.518 84.5709 291.955C84.6548 294.861 83.3961 297.196 81.8856 299.531C80.5262 301.648 78.7807 303.462 77.3373 305.478C74.2995 309.728 70.5904 313.339 67.1834 317.237C66.2939 318.245 65.5051 319.387 64.4981 320.261C62.1485 322.293 59.8995 324.443 57.6002 326.543C53.5554 330.273 49.3093 333.75 45.1638 337.345C44.6939 337.748 44.2239 338.151 43.8211 338.638C42.6127 340.066 41.2533 341.394 39.8938 342.603C37.8127 344.451 35.6645 346.231 33.5833 348.079C31.4183 350.011 29.0518 351.708 27.5917 354.345C27.491 354.513 27.3232 354.698 27.1385 354.765C24.9735 355.639 23.6644 357.672 21.8854 359.049C20.7609 359.923 19.5022 360.695 18.6462 361.938C18.0084 362.862 18.2266 363.87 19.2336 364.257C20.3749 364.677 21.5665 364.979 22.7246 365.399C24.7721 366.155 26.8532 366.088 29.0518 365.903C28.5316 364.324 28.0616 362.93 27.6253 361.518C27.5246 361.216 27.5749 360.897 27.877 360.678C28.2462 360.41 28.4644 360.729 28.5987 360.964C29.3372 362.224 30.0756 363.501 30.7805 364.794C31.0826 365.365 31.3344 365.953 31.8714 366.289C32.526 366.709 32.9959 366.054 33.5498 365.886C34.3218 365.651 35.1274 365.5 36.2519 365.248L36.3022 365.265ZM53.9582 325.535L54.0086 325.603C54.8477 324.83 55.7037 324.074 56.5261 323.284C56.6603 323.167 56.7442 322.915 56.7442 322.73C56.7442 322.344 56.4589 322.209 56.1568 322.176C52.9177 321.705 49.6953 321.117 46.4561 320.849C45.0463 320.731 43.5862 319.673 42.2771 320.513C41.1022 321.269 40.1792 322.461 39.1889 323.503C38.8365 323.872 38.5344 324.309 38.2659 324.746C37.9134 325.3 38.098 325.855 38.6687 325.955C39.575 326.107 40.5148 326.375 41.4043 326.258C42.9652 326.056 44.4589 326.392 45.9694 326.56C47.4967 326.728 49.0072 326.946 50.5344 327.182C51.3904 327.316 52.1624 327.182 52.817 326.56C53.203 326.207 53.589 325.871 53.975 325.535L53.9582 325.535ZM49.1414 312.987C50.182 313.759 51.4743 313.81 52.6156 313.894C56.1065 314.179 59.4799 315.003 62.8701 315.775C63.2394 315.859 63.8268 315.91 64.0282 315.691C65.6226 314.062 67.6702 312.919 69.0296 311.038C69.1471 310.887 69.231 310.635 69.1974 310.45C69.1471 310.114 68.8618 309.929 68.5597 309.929C66.3107 309.929 64.045 310.114 61.8296 309.862C58.8421 309.543 55.9051 309.929 52.9345 309.862C52.4142 309.862 51.81 309.879 51.5246 310.349C50.9372 311.374 49.6449 311.66 49.1414 312.953L49.1414 312.987ZM61.8967 317.556C60.2016 317.22 58.7415 316.783 57.2477 316.649C54.2939 316.363 51.424 315.758 48.6044 314.818C48.2016 314.683 47.7988 314.499 47.4295 314.751C46.2547 315.591 45.0967 316.498 44.5092 317.909C44.3078 318.413 44.5764 318.766 45.0127 318.85C48.94 319.538 52.8841 320.126 56.7778 320.899C58.6743 321.285 59.9331 320.597 60.9233 319.051C61.1918 318.631 61.4771 318.211 61.8967 317.556ZM72.2184 307.426C72.5709 307.158 72.8394 306.99 73.0408 306.771C73.3093 306.502 73.7793 306.301 73.5947 305.78C73.4268 305.293 72.9737 305.326 72.5709 305.31C69.5163 305.192 66.4618 305.074 63.4408 304.571C61.9303 304.319 60.3862 304.386 58.8589 304.268C58.3219 304.235 57.7848 304.302 57.4995 304.789C56.8617 305.898 55.4519 306.2 54.9149 307.393C56.0393 308.266 57.3988 307.829 58.624 308.081C59.2114 308.199 59.8492 308.132 60.4534 308.048C62.2995 307.796 64.1121 308.132 65.9415 308.233C67.1667 308.3 68.3751 308.417 69.6002 308.451C70.6408 308.485 71.6478 308.317 72.2184 307.41L72.2184 307.426ZM64.582 298.473C65.5555 298.573 65.9583 298.691 66.3443 298.657C68.1904 298.489 70.0366 298.54 71.866 298.775C73.7961 299.027 75.7261 299.296 77.6562 299.632C78.5793 299.783 79.2506 299.564 79.7709 298.758C80.1066 298.237 80.5261 297.767 80.8786 297.229C81.4492 296.373 81.1807 295.802 80.224 295.751C77.2534 295.617 74.266 295.667 71.3289 295.264C69.1639 294.962 67.5359 295.466 66.1093 297.061C65.7736 297.431 65.3709 297.75 64.5988 298.489L64.582 298.473ZM77.4716 301.312C76.4646 301.127 75.8772 300.959 75.2898 300.942C72.5373 300.808 69.7848 300.572 67.0827 300.001C66.1764 299.816 65.2534 299.833 64.3303 299.716C63.5415 299.598 62.9373 299.85 62.4338 300.472C61.9806 301.026 61.2925 301.379 61.1247 302.219C61.5275 302.773 62.1653 302.739 62.7695 302.823C64.5988 303.075 66.4114 303.361 68.2576 303.596C69.9862 303.815 71.7317 303.915 73.4604 304.167C74.8534 304.386 75.8436 303.899 76.6157 302.739C76.8506 302.387 77.052 302.034 77.4884 301.312L77.4716 301.312ZM30.898 333.364C30.6798 333.532 30.3442 333.784 30.0253 334.052C29.9414 334.12 29.891 334.204 29.8239 334.288C29.5218 334.657 29.6896 335.497 30.0924 335.648C30.4784 335.783 30.8644 335.968 31.2672 335.984C33.7344 336.102 36.1512 336.488 38.5679 336.992C40.498 337.395 41.9917 336.807 43.1833 335.279C43.5526 334.808 44.375 334.506 44.1736 333.817C43.9554 333.011 43.1498 333.448 42.5959 333.397C41.4883 333.296 40.347 333.246 39.2561 333.196C37.2924 333.128 35.4631 332.356 33.4994 332.406C32.526 332.423 31.67 332.49 30.898 333.364ZM72.3023 291.434C71.866 291.871 71.4128 292.291 70.9932 292.761C70.8925 292.878 70.8422 293.164 70.8926 293.315C70.9429 293.466 71.1611 293.668 71.3121 293.668C74.8702 293.836 78.445 293.97 82.0198 294.105C82.473 294.122 82.8087 293.836 82.9429 293.416C83.1108 292.929 83.1947 292.408 83.2618 291.887C83.3625 290.88 83.1443 290.577 82.1038 290.543C79.8716 290.476 77.6226 290.577 75.3905 290.426C74.1653 290.342 73.1751 290.543 72.3023 291.417L72.3023 291.434ZM37.2757 340.453C37.4771 340.234 37.6784 339.999 37.8966 339.798C38.2155 339.495 38.484 339.159 38.3833 338.706C38.2491 338.051 37.6617 338.017 37.175 338.034C34.6071 338.067 32.0896 337.815 29.5889 337.211C28.6323 336.975 27.7763 337.362 27.0882 338.034C26.9036 338.218 26.8364 338.605 26.8197 338.907C26.7861 339.31 27.1553 339.394 27.4239 339.445C30.3441 339.915 33.2477 340.369 36.168 340.806C36.5707 340.873 36.9736 340.89 37.2757 340.453ZM24.084 342.788C26.9036 343.544 29.5889 343.98 32.3414 344.115C32.9959 344.148 33.5498 344.065 33.9861 343.544C34.2547 343.225 34.7078 342.855 34.6742 342.553C34.6071 341.897 33.9526 341.931 33.4658 341.914C31.133 341.847 28.9176 340.974 26.5847 340.789C25.091 340.671 24.5707 341.293 24.1176 342.771L24.084 342.788ZM21.4155 346.383C21.5665 346.5 21.7176 346.685 21.8854 346.719C23.6812 347.038 25.5106 347.206 27.2896 347.659C28.6658 348.012 29.656 347.391 30.663 346.702C30.7973 346.618 30.8812 346.349 30.8644 346.164C30.8644 345.98 30.7134 345.694 30.5791 345.66C28.1791 345.257 25.7623 344.888 23.3623 344.485C22.5399 344.35 21.7847 345.039 21.3819 346.08C21.3483 346.164 21.3819 346.282 21.3987 346.399L21.4155 346.383ZM18.2938 350.414C20.5427 351.187 22.6071 351.019 24.6211 351.221C25.5777 351.322 26.1651 350.818 26.719 350.179C27.0211 349.843 26.8868 349.239 26.484 349.188C24.3525 348.903 22.2378 348.617 20.1064 348.365C19.6532 348.315 19.3343 348.6 19.0994 348.97C18.8308 349.407 18.5959 349.877 18.2938 350.414ZM13.2084 357.336C13.3763 357.504 13.4938 357.756 13.6448 357.772C15.0546 357.924 16.4476 358.075 17.8574 358.125C18.1931 358.125 18.5791 357.789 18.8644 357.52C19.5357 356.882 19.3679 356.193 18.4784 356.008C17.4043 355.773 16.2966 355.588 15.2056 355.488C14.2826 355.387 13.6951 355.958 13.3259 356.781C13.242 356.966 13.242 357.184 13.2084 357.352L13.2084 357.336ZM16.2798 353.623C16.414 353.707 16.649 353.993 16.9008 354.009C18.6966 354.161 20.5092 354.295 22.3218 354.362C22.7246 354.362 23.0099 353.909 23.0434 353.489C23.0938 353.018 22.8588 352.649 22.3721 352.666C20.8448 352.733 19.3511 352.481 17.8742 352.178C17.4882 352.094 17.0686 352.145 16.6826 352.212C16.2798 352.262 15.9441 353.22 16.2798 353.64L16.2798 353.623ZM76.2464 288.41C77.673 289.065 78.7975 288.746 79.8884 288.88C80.4422 288.948 81.2143 289.25 81.466 288.511C81.6338 288.04 81.0464 287.621 80.6772 287.268C79.48 286.092 78.294 286.103 77.1191 287.301C76.8506 287.587 76.6157 287.923 76.2464 288.41ZM12.7553 359.687C13.007 360.208 13.5105 360.309 13.9805 360.359C14.4672 360.41 15.1721 360.326 15.256 359.855C15.407 358.982 14.6182 359.435 14.2322 359.351C13.8462 359.267 13.4602 359.251 13.0742 359.251C12.8224 359.251 12.7217 359.435 12.7721 359.687L12.7553 359.687Z"
        fill="url(#paint2_radial_0_1)"/>
    <path
        d="M9.49932 351.506C9.75107 351.355 9.98603 351.154 10.2546 351.086C10.5734 351.002 10.8923 351.187 10.8923 351.539C10.8923 351.959 10.5063 351.959 10.2546 351.875C9.98603 351.791 9.76784 351.573 9.51609 351.405L9.51609 351.489L9.49932 351.506Z"
        fill="url(#paint3_radial_0_1)"/>
    <defs>
        <radialGradient id="paint0_radial_0_1" cx="0" cy="0" r="1" gradientUnits="userSpaceOnUse"
                        gradientTransform="translate(97.153 90.6819) rotate(0.120111) scale(91.2214 88.6465)">
            <stop stop-color="#4D4B4F"/>
            <stop offset="1" stop-color="#29292B"/>
        </radialGradient>
        <radialGradient id="paint1_radial_0_1" cx="0" cy="0" r="1" gradientUnits="userSpaceOnUse"
                        gradientTransform="translate(151.176 162.183) rotate(0.120118) scale(1.08212 1.05164)">
            <stop stop-color="#4D4B4F"/>
            <stop offset="1" stop-color="#29292B"/>
        </radialGradient>
        <radialGradient id="paint2_radial_0_1" cx="0" cy="0" r="1" gradientUnits="userSpaceOnUse"
                        gradientTransform="translate(48.955 322.557) rotate(90.1199) scale(49.5898 48.1009)">
            <stop stop-color="#4D4B4F"/>
            <stop offset="1" stop-color="#29292B"/>
        </radialGradient>
        <radialGradient id="paint3_radial_0_1" cx="0" cy="0" r="1" gradientUnits="userSpaceOnUse"
                        gradientTransform="translate(10.1576 351.924) rotate(90.12) scale(0.587716 0.570633)">
            <stop stop-color="#4D4B4F"/>
            <stop offset="1" stop-color="#29292B"/>
        </radialGradient>
    </defs>
</svg>
