<svg width="934" height="1036" viewBox="0 0 934 1036" fill="none" xmlns="http://www.w3.org/2000/svg">
    <path
        d="M942.307 358.903C937.584 363.564 931.597 365.095 925.61 367.293C914.301 371.421 902.061 372.553 891.084 377.613C884.365 376.415 879.31 381.542 873.256 382.208C867.402 382.874 861.415 383.473 856.026 385.404C846.713 388.8 837.001 386.669 827.687 388.8C819.239 385.604 809.194 390.265 801.344 383.939C793.628 383.673 787.108 379.677 779.99 377.613C771.808 375.283 765.821 370.489 760.166 365.229C754.046 359.569 747.992 354.309 740.275 350.78C736.617 349.115 733.756 345.786 730.497 343.389C723.844 338.528 717.458 333.334 711.005 328.34C702.956 322.081 696.769 313.559 690.117 305.768C680.471 294.582 671.025 283.396 662.643 271.277C653.063 257.494 643.085 243.977 637.431 228.063C630.113 219.341 628.516 208.021 622.995 198.5C618.871 191.508 616.476 183.718 612.152 176.726C608.826 171.333 607.495 164.475 606.564 158.083C605.366 150.026 604.302 142.036 601.242 134.445C601.109 134.045 600.843 133.713 600.843 133.313C601.042 122.46 598.048 111.739 599.312 100.82C599.911 95.8256 601.774 91.3645 603.77 86.9033C605.433 83.1745 608.293 80.5777 612.617 78.8464C625.589 73.7194 636.566 65.3297 646.544 56.0078C652.797 50.2149 658.585 43.5564 663.042 36.4318C667.699 29.0409 673.353 22.5821 678.941 15.9902C684.662 9.19851 693.244 6.20225 701.16 2.73983C705.95 0.675692 710.939 -0.589492 716.859 0.276113C723.246 1.2083 730.031 0.142992 736.75 0.742257C740.542 1.07518 744.068 1.80758 747.726 2.47343C766.286 6.00244 782.917 14.9249 800.945 19.9853C802.808 20.518 804.471 22.0494 806.134 23.1814C808.196 24.5797 809.925 26.9102 812.187 27.3763C823.696 29.9731 831.08 38.8289 840.659 44.2223C846.513 47.4849 850.705 52.5454 856.559 55.8746C862.213 59.0707 867.402 63.4653 870.462 69.5246C878.578 74.1855 883.567 81.9093 890.02 88.1683C892.348 90.4322 895.009 92.1635 896.273 95.2929C896.872 96.7578 897.803 98.4224 899.133 99.2214C905.32 103.15 908.513 109.542 913.037 114.802C924.545 128.186 933.726 143.234 944.303 157.284C945.5 158.882 946.232 160.879 946.897 162.81C948.095 166.273 949.226 169.402 952.153 172.265C955.013 174.929 956.743 178.857 957.74 182.985C958.738 186.914 959.737 191.242 962.264 194.305C971.777 205.757 973.706 220.206 978.496 233.39C980.558 239.117 983.086 245.442 981.822 252.3C981.29 255.297 982.953 258.693 983.286 261.889C984.084 268.747 984.549 275.738 982.354 282.397C979.826 290.187 980.758 298.377 977.964 306.234C972.642 321.349 965.856 335.465 955.213 347.717C951.421 352.045 947.363 356.106 942.374 358.903H942.307ZM819.305 192.174C816.179 193.839 816.445 196.968 816.179 199.632C815.181 209.753 814.383 219.873 813.784 229.994C813.585 232.858 813.651 235.588 811.921 238.118C808.795 242.912 810.524 246.108 815.114 249.171C819.039 251.834 820.902 257.095 826.756 257.894C827.088 256.495 827.754 255.363 827.621 254.231C826.157 241.58 827.488 229.195 830.215 216.811C832.61 205.957 828.352 197.9 818.84 192.174L818.707 191.974L819.305 192.107V192.174ZM907.715 351.113H907.383C909.378 354.442 911.44 357.105 916.363 354.974C920.088 353.376 924.146 352.644 927.539 349.182C924.745 346.851 922.483 344.387 919.756 342.789C909.179 336.73 900.597 328.207 891.284 320.683C888.357 318.353 885.563 315.623 882.103 314.424C873.988 311.628 869.464 303.771 861.348 301.174C853.764 292.385 843.121 287.058 834.939 278.934C833.209 277.203 831.479 275.339 829.35 274.14C822.099 270.012 818.108 262.022 810.059 259.025C801.012 248.905 790.567 240.182 780.522 231.06C769.812 221.338 758.037 212.749 749.19 201.23C748.458 200.231 747.593 199.166 746.529 198.633C740.675 195.77 737.482 190.31 733.291 185.849C726.505 178.657 720.119 171.067 713.533 163.676C702.823 151.824 691.58 140.304 681.336 128.053C670.027 114.469 659.649 100.154 648.939 86.1042C647.209 83.8403 645.812 81.1769 643.151 79.7786C642.154 79.2459 640.357 78.7798 639.692 79.2459C633.971 83.574 626.654 84.8391 620.666 88.5679C617.008 90.8984 614.081 93.7615 613.682 98.2227C613.416 100.886 611.486 104.149 614.879 105.947C617.407 107.345 619.469 104.948 621.664 103.882C623.926 102.817 626.188 101.752 628.516 100.753C629.647 100.287 630.845 99.6875 632.042 99.6209C633.173 99.6209 634.503 99.8873 635.368 100.487C636.898 101.619 635.568 102.884 634.769 103.416C631.776 105.614 628.649 107.678 625.523 109.675C622.729 111.473 619.735 113.005 617.074 114.936C615.877 115.868 614.347 117.599 614.48 118.797C615.411 125.989 614.48 133.446 616.742 140.504C617.341 142.435 620.467 143.434 621.864 141.969C627.252 136.11 634.437 132.514 640.424 127.387C642.154 125.922 644.083 123.791 646.744 125.19C647.608 126.854 646.344 127.587 645.48 128.386C638.894 134.578 632.308 140.837 625.523 146.896C619.802 152.023 619.669 151.957 622.396 159.414C624.059 164.009 625.789 168.603 627.519 173.197C628.649 176.194 631.044 176.993 633.173 174.662C639.493 167.538 648.207 162.943 654.061 155.353C656.589 152.023 659.982 149.693 664.638 150.092C664.971 152.09 664.439 153.555 663.242 154.82C655.325 163.21 647.874 172.132 639.226 179.856C633.971 184.517 632.774 188.845 634.969 194.838C635.634 196.702 635.634 199.232 637.83 199.965C640.757 200.897 642.353 198.3 643.95 196.569C647.941 192.374 651.733 188.046 655.458 183.651C657.587 181.054 659.849 178.724 662.776 176.993C663.441 176.593 664.638 176.127 665.104 176.393C666.235 177.059 666.302 178.324 665.57 179.39C659.982 187.513 653.529 195.104 646.611 202.162C643.95 204.825 643.085 207.489 644.016 210.951C644.748 213.681 645.147 216.544 646.012 219.274C647.342 223.269 650.669 224.002 653.529 221.072C663.308 211.018 673.021 200.897 682.8 190.842C684.197 189.378 685.993 188.179 687.722 187.114C688.254 186.781 689.452 186.714 689.918 187.047C691.115 187.846 690.915 189.244 690.25 190.31C689.385 191.708 688.254 192.907 687.123 194.172C677.344 205.291 667.566 216.411 657.72 227.531C654.394 231.26 653.862 234.589 656.722 238.384C659.117 241.58 661.978 244.443 665.171 247.972C675.814 238.318 682.999 225.6 694.241 216.344C695.173 219.074 694.241 220.872 693.111 222.67C687.19 231.592 681.003 240.448 672.621 247.307C666.967 251.967 667.632 256.961 671.357 262.355C672.754 264.352 674.617 266.083 676.28 267.881C679.274 271.211 680.405 271.211 682.866 267.815C693.044 253.765 705.683 241.847 717.99 229.661C720.252 227.398 723.379 225.866 726.106 224.068C726.372 223.869 727.104 223.935 727.171 224.068C727.503 224.734 728.102 225.733 727.836 226.132C726.505 228.197 725.108 230.194 723.512 232.059C714.265 242.579 704.885 252.966 695.705 263.553C683.332 277.802 680.139 275.206 695.306 292.251C696.171 293.184 696.902 293.983 698.765 293.916C705.484 285.526 712.336 276.87 719.321 268.214C721.915 265.018 724.776 262.022 727.57 259.025C728.035 258.493 729.1 258.426 729.832 258.16C730.031 259.292 730.696 260.69 730.231 261.423C724.776 269.612 720.052 278.335 713.334 285.659C710.54 288.722 708.278 292.185 705.55 295.248C702.49 298.71 703.156 302.572 706.149 306.367C707.147 307.633 708.411 308.765 709.675 309.763C715.462 314.225 717.924 314.224 721.849 308.298C729.632 296.646 739.61 286.725 748.258 275.672C751.518 271.477 755.576 267.948 759.434 264.219C760.232 263.42 761.829 263.021 762.694 264.352C763.027 264.818 763.027 265.95 762.694 266.416C759.168 271.41 755.642 276.471 751.917 281.331C743.202 292.784 734.355 304.037 725.641 315.49C722.647 319.485 723.113 321.749 727.171 324.479C728.501 325.411 730.031 326.143 731.561 326.876C735.486 328.807 736.218 328.673 738.945 325.411C745.797 317.221 752.649 309.031 759.501 300.841C760.033 300.242 760.698 299.642 761.364 299.243C762.029 298.91 763.093 298.51 763.692 298.777C764.224 299.043 764.623 300.175 764.423 300.841C764.157 301.973 763.692 303.238 762.96 304.17C756.773 311.295 752.316 319.818 745.132 326.21C743.935 327.275 742.737 328.54 741.939 329.939C740.675 331.936 741.207 333.8 743.136 335.265C744.6 336.331 746.263 336.73 747.726 335.598C749.39 334.333 750.853 332.868 752.183 331.337C762.761 319.285 773.271 307.166 783.915 295.181C786.642 292.118 789.702 289.322 792.763 286.525C793.095 286.192 794.426 286.325 794.825 286.725C795.224 287.124 795.291 288.19 795.091 288.789C794.692 289.921 794.093 291.053 793.428 292.118C784.314 306.301 773.138 318.885 761.63 331.27C759.7 333.401 757.505 335.332 755.709 337.529C753.78 339.926 754.113 341.99 756.308 343.921C759.168 346.385 762.295 348.316 766.02 349.182C769.546 346.452 769.945 342.057 772.34 338.794C779.258 329.539 787.64 321.549 795.69 313.226C795.956 312.959 796.421 312.76 796.82 312.693C797.219 312.56 797.885 312.36 798.018 312.493C798.417 313.092 799.082 313.891 798.949 314.358C798.483 315.889 797.951 317.554 796.954 318.752C788.971 328.207 782.651 338.928 773.205 347.184C769.812 350.18 769.745 353.443 772.473 355.441C774.668 357.039 777.396 356.573 780.057 353.51C784.314 348.516 788.106 343.122 792.497 338.195C799.016 330.804 805.868 323.613 810.99 315.157C813.318 311.361 816.644 308.165 819.771 304.903C820.436 304.237 822.166 303.904 823.097 304.237C824.428 304.703 824.361 306.301 823.629 307.366C812.919 323.813 802.741 340.725 787.773 354.176C785.711 356.04 783.383 357.971 782.717 360.901C782.917 361.3 782.984 361.833 783.316 362.032C785.711 363.564 788.106 365.095 790.634 366.494C796.222 369.623 800.945 368.558 804.604 363.298C806.001 361.3 807.131 359.103 808.462 356.972C813.518 348.982 819.372 341.591 826.423 335.132C827.953 333.667 829.749 332.602 832.211 334.799C824.827 344.587 817.443 354.375 810.059 364.163C809.061 365.495 808.063 366.827 807.398 368.291C806.466 370.156 807.398 371.354 809.327 371.754C812.32 372.42 815.447 372.62 817.11 369.557C823.563 357.571 833.807 348.249 840.992 336.797C841.657 335.798 842.389 334.666 843.387 334.067C844.318 333.534 845.715 333.201 846.713 333.468C848.11 333.867 848.31 335.465 847.777 336.53C846.247 339.394 844.584 342.257 842.655 344.92C836.734 353.243 830.615 361.5 824.627 369.756C823.63 371.155 824.494 373.552 826.157 373.485C830.348 373.352 834.406 374.417 838.664 373.818C843.786 373.086 847.245 371.421 847.977 365.961C848.243 364.03 848.842 361.766 850.106 360.301C856.625 352.777 860.816 343.921 865.739 335.465C866.67 333.867 868.666 332.735 870.262 331.537C870.529 331.337 872.258 332.269 872.191 332.469C871.46 335.598 870.927 338.861 869.664 341.857C865.606 351.645 860.151 360.701 854.23 369.423C855.893 370.622 857.556 370.222 859.02 369.756C865.007 368.025 870.196 364.23 876.715 363.764C877.58 363.764 878.777 362.365 879.176 361.433C880.041 359.169 880.374 356.706 881.039 354.309C883.301 346.385 886.76 339.061 892.681 333.001C893.413 332.269 895.076 331.67 896.007 332.003C896.739 332.269 897.404 333.867 897.404 334.932C897.537 340.059 894.876 344.321 892.215 348.516C889.887 352.244 887.093 355.774 888.157 360.834C896.739 360.701 902.393 356.04 907.649 350.713L907.715 351.113ZM962.198 244.776C957.009 248.172 952.884 250.902 948.693 253.499C945.168 255.763 941.443 257.627 937.252 258.36C936.653 258.493 935.522 258.027 935.256 257.561C934.923 256.961 935.056 255.963 935.389 255.297C936.786 252.234 939.181 250.103 942.241 248.438C947.363 245.708 952.352 242.646 957.275 239.649C958.606 238.784 960.202 237.652 959.869 235.787C958.605 229.462 958.472 222.737 952.751 218.009C951.554 218.542 950.224 218.808 949.292 219.541C940.578 225.933 930.932 230.793 921.552 236.187C920.886 236.586 919.955 237.052 919.224 236.853C918.691 236.719 918.026 235.787 917.96 235.188C917.827 233.39 919.157 232.258 920.288 231.06C925.809 225.333 933.127 222.071 939.58 217.543C952.286 208.754 952.751 208.887 943.904 195.637C943.505 195.037 942.573 194.771 941.908 194.305C938.449 195.17 936.187 197.701 933.859 199.965C927.672 206.09 920.621 211.217 913.569 216.211C913.104 216.544 911.84 216.411 911.44 216.012C911.041 215.612 910.908 214.214 911.241 213.947C915.498 210.085 918.159 204.958 923.082 201.496C927.739 198.233 931.331 193.439 935.455 189.378C937.85 187.047 938.249 184.517 936.52 181.654C935.455 179.923 934.324 178.191 933.193 176.46C929.268 170.534 926.275 170.135 921.486 174.995C919.756 176.793 918.492 178.924 916.829 180.722C910.31 187.646 903.923 194.638 897.138 201.296C894.543 203.826 891.084 205.558 887.957 207.555C887.492 207.822 886.228 207.489 885.829 207.023C885.43 206.623 885.563 205.624 885.629 204.958C885.629 204.626 886.028 204.226 886.294 203.96C894.942 194.571 902.26 184.051 911.64 175.262C915.232 171.866 918.558 168.204 921.818 164.475C922.882 163.276 923.747 161.345 922.55 160.014C918.758 156.018 917.361 150.891 914.966 146.23C914.101 144.566 912.438 144.166 910.842 145.498C909.578 146.563 908.38 147.695 907.383 149.027C899.799 158.948 890.619 167.205 879.908 173.863C878.644 174.662 877.314 176.194 875.318 173.397C881.239 166.938 887.226 160.346 893.279 153.755C897.47 149.227 901.794 144.766 905.852 140.105C907.183 138.573 908.513 136.043 907.116 134.512C903.524 130.45 902.659 124.79 898.269 121.261C895.874 119.33 893.612 119.064 891.816 121.527C886.028 129.651 878.245 135.91 871.127 142.768C870.529 143.367 869.996 143.967 869.331 144.433C869.065 144.632 868.267 144.566 868.134 144.433C867.734 143.833 867.202 142.835 867.402 142.502C873.456 134.711 879.642 127.054 885.763 119.264C889.687 114.336 889.088 114.603 886.294 109.009C883.168 102.75 877.114 99.6875 872.657 94.96C871.46 93.6949 869.398 94.0944 868.267 95.4927C866.737 97.4237 865.34 99.4878 864.076 101.552C855.561 115.668 842.522 125.19 829.417 134.711C828.552 135.311 827.754 135.444 827.288 134.711C826.889 134.112 826.49 133.047 826.756 132.647C830.149 128.053 833.076 122.859 837.267 119.064C844.651 112.339 851.17 105.014 857.423 97.3571C867.934 84.3064 866.005 87.4359 855.76 77.315C850.505 72.1214 845.915 72.5875 841.258 78.3804C833.741 87.5025 825.692 96.092 814.848 105.614C816.711 101.552 817.31 99.6209 818.374 97.9563C823.962 89.3003 829.616 80.844 837.2 73.5863C841.524 69.458 840.926 66.4616 836.202 62.3999C834.939 61.3346 833.741 60.2026 832.344 59.2704C829.151 57.0065 826.889 57.2063 825.093 60.3358C819.771 69.7909 811.123 76.516 804.338 84.7725C803.872 85.3718 803.007 85.9045 802.275 86.0376C801.61 86.1708 800.812 85.7047 800.08 85.3717C799.814 85.2386 799.548 84.6393 799.615 84.4396C800.014 83.3076 800.346 82.1091 801.078 81.177C806.799 73.7194 812.852 66.3951 818.44 58.8044C823.297 52.2125 823.031 52.0127 815.913 48.1507C813.385 46.7525 811.123 44.8215 808.595 43.4898C804.67 41.4923 800.28 42.824 798.018 46.8191C791.366 58.3383 782.185 67.7934 772.473 76.7158C768.947 79.9118 766.419 84.7725 760.765 85.1054C758.104 85.2386 760.964 79.4457 767.417 72.0547C767.683 71.7218 767.883 71.3889 768.215 71.1226C778.393 62.5331 785.379 51.2803 794.16 41.6254C796.355 39.1618 796.089 37.1643 793.494 35.4996C789.303 32.7697 785.312 29.7733 780.323 28.5082C776.797 27.576 775.467 28.1086 773.338 31.571C769.08 38.5625 766.02 46.2864 759.368 51.7464C758.038 52.8118 756.774 55.0091 754.312 53.411C756.241 42.5577 765.421 35.4996 769.147 25.9114C764.69 22.449 760.033 20.6512 755.177 19.4526C748.857 17.8546 745.398 19.8522 742.205 25.7116C736.883 35.3665 732.426 45.5539 724.576 53.6773C723.711 54.6095 722.713 55.4086 721.582 54.3432C721.183 53.9437 721.05 52.8117 721.316 52.1459C723.512 46.8857 725.973 41.7586 729.1 36.8313C732.625 31.3048 735.686 25.5119 738.812 19.7856C739.677 18.1875 739.211 16.4563 737.216 15.9902C733.557 15.1246 729.632 15.058 726.173 13.7929C720.718 11.7953 717.059 14.3256 714.198 17.9212C711.67 21.1173 710.141 24.9792 708.012 28.5082C704.885 33.7684 701.958 39.1618 697.302 43.3566C697.035 43.5564 696.37 43.623 696.104 43.4898C695.506 43.0903 694.574 42.4911 694.574 41.9584C694.574 40.7599 694.906 39.5613 695.372 38.4294C697.967 31.9706 700.495 25.5119 705.617 20.3848C706.482 19.5192 707.08 18.0543 705.95 17.0556C705.151 16.3897 703.754 16.1899 702.69 16.1899C700.096 16.1899 697.834 16.9889 695.838 18.7867C685.527 27.7757 678.01 38.9621 669.961 49.7488C668.963 51.0805 670.16 53.3444 671.89 53.2778C683.398 52.9449 692.645 57.9387 701.892 63.9314C710.274 69.3247 717.458 76.2496 725.441 81.9759C742.271 94.0278 756.574 108.743 772.007 122.26C775.999 125.789 780.522 128.918 783.981 132.913C792.031 142.235 800.546 151.158 808.861 160.28C823.629 176.327 837.4 193.173 851.636 209.619C853.233 211.484 854.829 213.348 856.758 214.946C862.412 219.74 867.668 225.134 872.458 230.527C879.775 238.784 886.827 247.306 894.144 255.563C901.794 264.152 908.513 273.541 918.958 279.334C919.623 279.733 920.355 280.399 920.621 281.132C924.08 289.721 932.129 294.915 937.584 301.973C941.043 306.434 944.103 311.428 949.026 314.824C952.685 317.354 956.676 316.488 958.206 312.493C959.869 307.965 961.067 303.238 962.73 298.644C965.723 290.52 965.458 282.264 964.726 273.541C958.473 275.605 952.951 277.47 947.363 279.201C946.165 279.6 944.901 279.401 944.037 278.202C942.972 276.737 944.237 275.871 945.168 275.339C950.157 272.409 955.213 269.479 960.335 266.683C962.597 265.484 964.925 264.485 966.256 262.355C967.919 259.758 965.324 257.894 964.659 255.696C963.728 252.633 963.129 249.437 962.131 244.976L962.198 244.776ZM804.87 174.729L805.136 174.529C802.076 171.2 799.083 167.804 795.956 164.541C795.49 164.009 794.492 163.676 793.761 163.676C792.23 163.676 791.698 164.808 791.565 166.006C789.702 178.857 787.374 191.641 786.31 204.492C785.844 210.085 781.653 215.878 784.979 221.072C787.973 225.733 792.696 229.395 796.82 233.324C798.284 234.722 800.014 235.92 801.743 236.986C803.939 238.384 806.134 237.652 806.533 235.388C807.132 231.792 808.196 228.063 807.73 224.534C806.932 218.342 808.262 212.416 808.928 206.423C809.593 200.364 810.458 194.371 811.389 188.312C811.921 184.916 811.389 181.853 808.928 179.257C807.531 177.725 806.2 176.194 804.87 174.662V174.729ZM755.177 193.839C758.237 189.711 758.437 184.583 758.769 180.056C759.9 166.206 763.16 152.822 766.22 139.372C766.552 137.907 766.752 135.577 765.887 134.778C759.434 128.452 754.911 120.329 747.46 114.936C746.861 114.469 745.864 114.137 745.132 114.27C743.801 114.469 743.07 115.601 743.07 116.8C743.07 125.722 743.801 134.711 742.803 143.501C741.539 155.353 743.069 167.005 742.803 178.79C742.803 180.855 742.87 183.252 744.733 184.384C748.791 186.714 749.922 191.841 755.044 193.839H755.177ZM773.271 143.234C771.941 149.959 770.211 155.752 769.679 161.678C768.548 173.397 766.153 184.783 762.428 195.969C761.896 197.567 761.164 199.165 762.162 200.63C765.488 205.291 769.08 209.886 774.668 212.216C776.664 213.015 778.061 211.95 778.394 210.219C781.121 194.638 783.449 178.99 786.509 163.543C788.039 156.018 785.312 151.025 779.192 147.096C777.529 146.031 775.866 144.899 773.271 143.234ZM733.158 102.284C732.093 100.886 731.428 99.8207 730.563 99.0217C729.499 97.9563 728.7 96.0919 726.638 96.8244C724.709 97.4902 724.842 99.288 724.776 100.886C724.31 113.005 723.844 125.123 721.849 137.108C720.851 143.101 721.117 149.227 720.651 155.286C720.518 157.417 720.784 159.547 722.714 160.679C727.104 163.21 728.301 168.803 733.025 170.934C736.484 166.472 734.754 161.079 735.752 156.218C736.218 153.888 735.952 151.357 735.619 148.96C734.621 141.636 735.952 134.445 736.351 127.187C736.617 122.326 737.083 117.532 737.216 112.672C737.349 108.543 736.683 104.548 733.091 102.284H733.158ZM697.701 132.581C698.1 128.719 698.565 127.121 698.432 125.589C697.767 118.265 697.967 110.94 698.898 103.683C699.896 96.0253 700.96 88.3681 702.291 80.7108C702.89 77.0486 702.025 74.3853 698.831 72.3211C696.769 70.9894 694.907 69.3248 692.778 67.9265C689.385 65.6626 687.124 66.728 686.924 70.5233C686.392 82.3089 686.591 94.161 684.995 105.813C683.797 114.403 685.793 120.862 692.113 126.521C693.576 127.853 694.84 129.451 697.767 132.514L697.701 132.581ZM708.943 81.4433C708.211 85.4384 707.546 87.7688 707.479 90.0993C706.947 101.019 706.016 111.939 703.754 122.659C703.022 126.255 703.089 129.917 702.623 133.579C702.158 136.709 703.156 139.106 705.617 141.103C707.812 142.901 709.209 145.631 712.535 146.297C714.731 144.699 714.597 142.169 714.93 139.772C715.928 132.514 717.059 125.323 717.99 117.998C718.855 111.14 719.254 104.215 720.252 97.3571C721.117 91.8305 719.188 87.902 714.598 84.8391C713.201 83.9069 711.804 83.1079 708.943 81.3767V81.4433ZM835.87 266.217C836.535 267.082 837.533 268.414 838.597 269.679C838.863 270.012 839.196 270.212 839.529 270.478C840.992 271.677 844.318 271.011 844.917 269.413C845.449 267.881 846.181 266.35 846.248 264.752C846.713 254.964 848.243 245.376 850.239 235.787C851.835 228.13 849.507 222.204 843.453 217.476C841.591 216.012 840.393 212.749 837.666 213.548C834.473 214.413 836.202 217.61 836.003 219.807C835.604 224.202 835.404 228.729 835.204 233.057C834.938 240.848 831.878 248.106 832.078 255.896C832.145 259.758 832.411 263.154 835.87 266.217ZM669.827 101.951C671.557 103.683 673.22 105.48 675.083 107.145C675.548 107.545 676.679 107.744 677.278 107.545C677.877 107.345 678.675 106.479 678.675 105.88C679.34 91.7639 679.872 77.5814 680.404 63.3988C680.471 61.601 679.34 60.2693 677.677 59.7366C675.748 59.0707 673.686 58.7378 671.624 58.4714C667.632 58.0719 666.434 58.9376 666.301 63.0658C666.035 71.9216 666.434 80.844 665.836 89.6998C665.503 94.5605 666.302 98.489 669.761 101.951H669.827ZM863.943 240.914C863.078 240.115 862.146 239.316 861.348 238.451C860.151 237.186 858.82 236.12 857.024 236.52C854.43 237.052 854.297 239.383 854.363 241.314C854.496 251.501 853.499 261.489 851.104 271.41C850.172 275.206 851.702 278.602 854.363 281.331C855.095 282.064 856.625 282.33 857.823 282.397C859.419 282.53 859.752 281.065 859.951 280C861.814 268.414 863.61 256.895 865.34 245.309C865.606 243.711 865.672 242.113 863.943 240.914ZM873.189 293.25C876.183 282.064 877.913 271.41 878.445 260.49C878.578 257.894 878.245 255.696 876.183 253.965C874.919 252.9 873.455 251.102 872.258 251.235C869.664 251.501 869.797 254.098 869.73 256.029C869.464 265.284 866.005 274.074 865.273 283.329C864.808 289.255 867.269 291.319 873.123 293.117L873.189 293.25ZM887.426 303.837C887.891 303.238 888.623 302.639 888.756 301.973C890.02 294.848 890.685 287.59 892.481 280.532C893.878 275.072 891.417 271.144 888.689 267.149C888.357 266.616 887.293 266.283 886.561 266.35C885.829 266.35 884.698 266.949 884.565 267.482C882.968 277.003 881.505 286.592 879.908 296.113C879.376 299.376 882.103 302.372 886.228 303.97C886.56 304.104 887.026 303.97 887.492 303.904L887.426 303.837ZM903.391 316.222C906.451 307.3 905.786 299.11 906.584 291.119C906.983 287.324 904.987 284.994 902.46 282.796C901.129 281.598 898.734 282.13 898.535 283.729C897.404 292.185 896.273 300.575 895.275 309.031C895.076 310.829 896.207 312.094 897.67 313.026C899.4 314.091 901.262 315.023 903.391 316.222ZM930.799 336.397C931.464 335.731 932.462 335.265 932.528 334.666C933.127 329.073 933.726 323.546 933.925 317.953C933.925 316.622 932.595 315.09 931.53 313.958C929.002 311.295 926.275 311.961 925.543 315.49C924.612 319.751 923.88 324.146 923.481 328.474C923.082 332.136 925.344 334.466 928.603 335.931C929.335 336.264 930.2 336.264 930.865 336.397H930.799ZM916.097 324.212C916.43 323.68 917.561 322.747 917.627 321.749C918.226 314.624 918.758 307.433 919.024 300.242C919.024 298.644 917.228 297.512 915.565 297.378C913.702 297.179 912.239 298.111 912.305 300.042C912.571 306.101 911.573 312.027 910.376 317.887C910.043 319.418 910.243 321.083 910.509 322.614C910.709 324.212 914.5 325.544 916.163 324.212H916.097ZM657.853 86.3039C660.448 80.6442 659.184 76.183 659.716 71.855C659.982 69.6577 661.179 66.5948 658.252 65.596C656.39 64.9301 654.727 67.2606 653.33 68.7255C648.673 73.4752 648.717 78.1806 653.462 82.8416C654.593 83.9069 655.924 84.8391 657.853 86.3039ZM940.112 338.195C942.174 337.196 942.573 335.199 942.773 333.334C942.972 331.403 942.64 328.607 940.777 328.274C937.318 327.675 939.114 330.804 938.781 332.336C938.449 333.867 938.382 335.398 938.382 336.93C938.382 337.929 939.114 338.328 940.112 338.128V338.195Z"
        fill="url(#paint0_radial_0_1)"/>
    <path
        d="M907.715 351.113C907.116 350.114 906.318 349.182 906.052 348.116C905.719 346.851 906.451 345.586 907.848 345.586C909.511 345.586 909.511 347.117 909.178 348.116C908.846 349.182 907.981 350.047 907.316 351.046H907.648L907.715 351.113Z"
        fill="url(#paint1_radial_0_1)"/>
    <path
        d="M859.033 554.628C861.519 559.007 861.465 563.698 861.899 568.52C862.703 577.623 861.13 586.82 862.681 595.863C860.486 600.554 863.247 605.268 862.547 609.838C861.886 614.261 861.15 618.769 861.507 623.099C862.166 630.596 858.7 637.299 858.433 644.546C854.435 650.113 855.877 658.394 849.706 662.907C847.997 668.513 843.792 672.509 840.885 677.322C837.573 682.864 832.888 686.312 827.928 689.425C822.583 692.801 817.544 696.207 813.447 701.172C811.51 703.527 808.511 704.971 806.117 706.89C801.253 710.813 796.197 714.475 791.275 718.226C785.113 722.898 777.66 725.76 770.651 729.108C760.568 733.983 750.525 738.712 740.008 742.478C728.037 746.794 716.184 751.455 703.423 752.475C695.601 756.127 687 755.074 678.946 757.252C673.018 758.903 666.844 759.128 660.877 760.926C656.276 762.305 650.994 761.933 646.131 761.361C639.997 760.656 633.939 759.867 627.781 760.619C627.462 760.638 627.166 760.768 626.874 760.689C618.967 758.411 610.531 758.5 602.784 755.428C599.245 754.008 596.344 751.766 593.47 749.426C591.066 747.474 589.726 744.867 589.307 741.356C588.098 730.837 584.11 721.14 579.242 711.992C576.228 706.269 572.489 700.718 568.147 696.05C563.649 691.183 560.03 685.768 556.3 680.376C552.45 674.847 551.94 667.966 550.958 661.481C550.387 657.563 550.44 653.657 552.235 649.485C554.17 644.986 554.722 639.801 556.479 634.992C557.466 632.277 558.694 629.836 559.9 627.284C566.125 614.368 575.92 603.926 583.162 591.702C583.918 590.44 585.365 589.522 586.52 588.525C587.949 587.288 589.994 586.477 590.779 584.91C594.939 576.982 602.871 573.307 608.699 567.343C612.237 563.691 616.764 561.612 620.35 557.974C623.799 554.455 628.035 551.514 633.071 550.461C638.076 545.425 644.71 543.284 650.558 539.782C652.673 538.52 654.462 536.909 657.001 536.597C658.191 536.446 659.593 536.09 660.439 535.271C664.529 531.507 669.835 530.421 674.574 528.137C686.631 522.328 699.449 518.553 711.811 513.557C713.216 512.993 714.822 512.849 716.366 512.74C719.136 512.543 721.649 512.328 724.32 510.744C726.831 509.17 730.046 508.674 733.265 508.753C736.337 508.793 739.701 508.911 742.44 507.66C752.691 502.934 763.648 504.358 774.24 503.436C778.837 503.049 783.964 502.438 788.738 504.712C790.827 505.691 793.64 505.139 796.045 505.523C801.223 506.284 806.433 507.317 810.877 510.234C816.085 513.618 822.264 514.544 827.468 518.136C837.49 525.008 846.493 532.757 853.375 542.968C855.8 546.598 857.977 550.372 859.046 554.58L859.033 554.628ZM712.831 612.065C713.436 614.685 715.78 615.105 717.677 615.823C724.892 618.543 732.145 621.116 739.437 623.544C741.494 624.252 743.506 624.74 745.019 626.505C747.916 629.74 750.595 629.099 753.738 626.335C756.458 623.981 760.675 623.648 762.409 619.513C761.45 618.994 760.752 618.284 759.897 618.159C750.347 616.747 741.541 613.338 733.009 608.906C725.533 605.017 718.798 606.557 712.74 612.407L712.567 612.465L712.782 612.052L712.831 612.065ZM846.542 578.462L846.477 578.706C849.306 577.897 851.66 576.908 851.066 572.88C850.627 569.834 850.887 566.715 849.018 563.547C846.763 565.138 844.516 566.312 842.811 567.998C836.299 574.564 828.376 579.182 821.04 584.533C818.759 586.221 816.212 587.734 814.656 590.035C811.016 595.436 804.376 597.21 800.883 602.65C792.96 606.485 786.972 613.242 779.419 617.646C777.812 618.574 776.108 619.477 774.812 620.802C770.367 625.308 763.734 626.665 759.961 631.978C750.776 636.624 742.341 642.568 733.691 648.142C724.473 654.085 715.874 661.032 705.704 665.256C704.829 665.597 703.88 666.022 703.281 666.698C700.036 670.428 695.412 671.696 691.324 673.893C684.727 677.456 677.917 680.647 671.214 684.024C660.435 689.549 649.795 695.53 638.815 700.635C626.652 706.259 614.134 711.056 601.747 716.149C599.75 716.972 597.526 717.473 595.98 719.15C595.394 719.777 594.701 721.002 594.912 721.582C596.958 726.627 596.448 732.241 598.004 737.364C598.992 740.504 600.514 743.213 603.702 744.382C605.6 745.1 607.61 747.156 609.592 745.021C611.112 743.442 609.761 741.459 609.412 739.64C609.076 737.773 608.739 735.905 608.465 734.001C608.346 733.081 608.142 732.085 608.328 731.194C608.55 730.365 609.006 729.441 609.614 728.925C610.743 728.025 611.408 729.25 611.642 729.94C612.663 732.566 613.561 735.264 614.41 737.949C615.178 740.351 615.712 742.847 616.604 745.177C617.051 746.238 618.019 747.701 618.922 747.838C624.37 748.568 629.647 750.716 635.258 750.444C636.789 750.384 638.134 748.288 637.336 746.976C634.103 741.874 632.88 735.899 630.301 730.502C629.568 728.946 628.386 727.113 629.932 725.437C631.321 725.13 631.609 726.2 632.024 726.992C635.266 733.037 638.556 739.096 641.661 745.261C644.292 750.464 644.217 750.548 650.213 750.013C653.903 749.696 657.606 749.33 661.309 748.965C663.724 748.724 664.779 747.125 663.491 745.106C659.514 739.073 657.86 731.78 653.452 725.997C651.51 723.489 650.469 720.544 651.675 717.208C653.203 717.356 654.171 718.034 654.863 719.161C659.452 726.613 664.523 733.829 668.481 741.688C670.862 746.457 673.796 748.185 678.614 747.753C680.11 747.631 681.962 748.128 682.929 746.662C684.186 744.699 682.598 743.019 681.644 741.508C679.355 737.757 676.931 734.127 674.444 730.532C672.961 728.461 671.698 726.344 671.005 723.858C670.843 723.292 670.737 722.322 671.023 722.033C671.732 721.335 672.672 721.534 673.308 722.28C678.159 727.973 682.451 734.196 686.261 740.655C687.689 743.13 689.469 744.287 692.186 744.284C694.329 744.284 696.503 744.554 698.672 744.456C701.858 744.265 703.047 741.97 701.463 739.297C696.02 730.152 690.516 721.042 685.073 711.896C684.275 710.584 683.75 709.032 683.309 707.554C683.17 707.099 683.356 706.207 683.691 705.931C684.511 705.21 685.496 705.631 686.145 706.329C686.999 707.237 687.655 708.302 688.359 709.38C694.582 718.735 700.804 728.09 707.014 737.493C709.091 740.665 711.424 741.709 714.764 740.357C717.574 739.229 720.232 737.694 723.442 736.046C718.461 726.345 710.56 718.578 705.989 708.516C708.171 708.37 709.304 709.406 710.399 710.588C715.77 716.682 721.039 722.958 724.416 730.452C726.719 735.514 730.506 736.007 735.185 734.335C736.922 733.703 738.555 732.677 740.198 731.811C743.222 730.27 743.444 729.441 741.441 726.969C733.152 716.746 726.905 705.136 720.399 693.719C719.185 691.616 718.677 689.022 717.896 686.669C717.802 686.435 717.995 685.911 718.105 685.889C718.658 685.775 719.507 685.533 719.747 685.806C720.997 687.187 722.185 688.604 723.237 690.141C729.125 698.988 734.89 707.906 740.84 716.717C748.845 728.589 746.317 730.42 761.773 722.648C762.625 722.197 763.353 721.817 763.67 720.438C758.846 713.864 753.853 707.139 748.886 700.317C747.055 697.787 745.422 695.101 743.777 692.463C743.478 692.017 743.638 691.223 743.587 690.635C744.455 690.711 745.609 690.498 746.054 690.983C750.98 696.592 756.439 701.769 760.484 708.134C762.178 710.784 764.269 713.123 765.976 715.725C767.911 718.649 770.869 718.919 774.235 717.47C775.357 716.987 776.434 716.283 777.413 715.552C781.815 712.185 782.298 710.38 778.729 706.338C771.725 698.342 766.419 689.076 760.023 680.563C757.592 677.349 755.804 673.681 753.831 670.119C753.403 669.377 753.424 668.127 754.568 667.755C754.975 667.602 755.804 667.825 756.08 668.16C759.044 671.726 762.057 675.306 764.885 678.993C771.56 687.632 778.063 696.33 784.738 704.97C787.076 707.95 788.824 708.053 791.619 705.614C792.563 704.822 793.399 703.844 794.236 702.866C796.42 700.367 796.466 699.804 794.612 697.163C789.96 690.53 785.308 683.897 780.656 677.264C780.322 676.756 780.014 676.151 779.852 675.584C779.739 675.031 779.655 674.172 779.968 673.786C780.267 673.448 781.174 673.378 781.622 673.655C782.399 674.072 783.234 674.662 783.773 675.382C787.775 681.318 793.141 686.26 796.411 692.784C796.956 693.871 797.647 694.998 798.514 695.858C799.729 697.177 801.198 697.153 802.649 696.026C803.716 695.162 804.335 694.021 803.794 692.726C803.194 691.258 802.408 689.897 801.548 688.621C794.8 678.497 787.989 668.41 781.303 658.251C779.596 655.649 778.148 652.856 776.701 650.063C776.523 649.754 776.881 648.804 777.252 648.59C777.623 648.376 778.416 648.536 778.816 648.8C779.566 649.315 780.277 649.977 780.927 650.674C789.522 660.143 796.543 670.81 803.353 681.681C804.534 683.514 805.517 685.503 806.774 687.252C808.15 689.138 809.727 689.299 811.571 688.069C813.936 686.455 815.963 684.542 817.328 681.98C816.021 678.859 812.882 677.703 810.963 675.306C805.544 668.415 801.339 660.699 796.824 653.162C796.681 652.915 796.626 652.534 796.656 652.228C796.637 651.909 796.621 651.382 796.745 651.311C797.262 651.136 797.977 650.805 798.292 650.994C799.322 651.637 800.437 652.354 801.118 653.321C806.475 661.032 813.083 667.772 817.275 676.32C818.803 679.396 821.179 680.086 823.176 678.479C824.777 677.183 824.971 675.091 823.25 672.538C820.43 668.436 817.225 664.596 814.479 660.408C810.347 654.176 806.426 647.74 801.24 642.322C798.918 639.87 797.231 636.803 795.455 633.869C795.098 633.251 795.194 631.917 795.62 631.3C796.223 630.416 797.38 630.778 798.016 631.524C807.956 642.608 818.341 653.394 825.252 667.011C826.212 668.89 827.169 670.976 829.184 672.039C829.515 671.972 829.918 672.027 830.13 671.823C831.721 670.368 833.312 668.912 834.832 667.334C838.219 663.851 838.366 660.178 835.233 656.462C834.044 655.045 832.658 653.785 831.359 652.391C826.501 647.114 822.238 641.369 818.893 634.93C818.12 633.52 817.693 631.994 819.785 630.621C825.502 637.958 831.219 645.295 836.937 652.632C837.716 653.626 838.495 654.619 839.437 655.395C840.619 656.444 841.68 655.996 842.351 654.66C843.425 652.596 844.185 650.343 842.269 648.521C834.76 641.435 829.945 632.093 822.97 624.575C822.369 623.891 821.684 623.132 821.441 622.282C821.234 621.495 821.264 620.405 821.655 619.726C822.221 618.78 823.431 618.947 824.106 619.547C825.902 621.231 827.672 623.013 829.244 624.951C834.176 630.927 839.02 637.037 843.89 643.049C844.718 644.055 846.643 643.892 846.92 642.659C847.645 639.56 849.221 636.794 849.618 633.555C850.087 629.655 849.546 626.791 845.693 625.182C844.331 624.608 842.791 623.724 841.967 622.509C837.737 616.251 832.076 611.438 826.85 606.167C825.863 605.171 825.426 603.485 824.862 602.079C824.767 601.844 825.789 600.759 825.922 600.847C828.07 601.999 830.354 603.03 832.3 604.545C838.67 609.444 844.23 615.222 849.454 621.277C850.658 620.293 850.692 618.995 850.638 617.831C850.545 613.1 848.784 608.55 849.722 603.678C849.892 603.044 849.103 601.892 848.499 601.416C847.011 600.337 845.273 599.609 843.648 598.65C838.291 595.435 833.607 591.46 830.333 585.928C829.94 585.248 829.827 583.911 830.254 583.293C830.592 582.809 831.893 582.635 832.673 582.844C836.453 583.754 839.051 586.542 841.6 589.318C843.873 591.757 845.909 594.499 849.822 594.713C851.409 588.394 849.105 583.333 846.237 578.433L846.542 578.462ZM779.379 517.623C780.847 522.095 782.036 525.656 783.115 529.239C784.081 532.269 784.715 535.367 784.429 538.584C784.409 539.049 783.846 539.787 783.452 539.89C782.948 540.016 782.243 539.723 781.821 539.348C779.853 537.722 778.763 535.547 778.144 532.976C777.151 528.684 775.887 524.424 774.659 520.226C774.286 519.08 773.771 517.687 772.341 517.565C767.461 517.249 762.512 516.026 757.928 519.292C758.083 520.274 758.017 521.302 758.371 522.129C761.341 529.775 763.007 537.802 765.115 545.74C765.277 546.306 765.436 547.08 765.146 547.578C764.944 547.942 764.131 548.246 763.679 548.177C762.337 547.922 761.769 546.724 761.114 545.659C758.004 540.486 757.051 534.479 755.002 528.858C751.06 517.815 751.249 517.499 739.812 521.384C739.295 521.559 738.917 522.19 738.446 522.586C738.401 525.292 739.809 527.448 741.01 529.6C744.281 535.339 746.652 541.517 748.924 547.669C749.077 548.076 748.731 548.976 748.36 549.19C747.989 549.405 746.94 549.228 746.81 548.931C744.818 545.051 741.586 542.092 740.017 537.803C738.542 533.747 735.737 530.171 733.572 526.349C732.336 524.135 730.562 523.346 728.126 524.052C726.65 524.492 725.16 524.981 723.671 525.47C718.562 527.184 717.682 529.3 720.301 533.767C721.278 535.389 722.59 536.734 723.58 538.307C727.371 544.447 731.237 550.504 734.78 556.787C736.124 559.186 736.713 562.063 737.562 564.748C737.665 565.142 737.174 566.003 736.754 566.204C736.383 566.418 735.678 566.124 735.204 565.945C734.96 565.88 734.746 565.508 734.603 565.261C729.426 557.076 723.159 549.643 718.565 541.039C716.783 537.738 714.755 534.579 712.664 531.457C711.996 530.441 710.751 529.427 709.542 530.044C705.873 532.039 701.845 532.056 697.962 532.897C696.574 533.204 695.955 534.345 696.617 535.777C697.149 536.913 697.743 538.013 698.522 539.007C704.298 546.516 708.542 554.87 711.315 564.031C711.652 565.115 712.512 566.391 710.073 567.305C706.506 561.695 702.855 556.01 699.216 550.277C696.724 546.314 694.306 542.267 691.689 538.376C690.829 537.1 689.238 535.627 687.842 536.35C684.164 538.187 679.85 537.709 676.405 540.235C674.522 541.612 673.883 543.218 675.334 545.019C680.146 550.858 683.202 557.795 686.826 564.361C687.148 564.918 687.482 565.426 687.693 566.005C687.787 566.24 687.581 566.812 687.458 566.883C686.941 567.058 686.105 567.252 685.9 567.041C681.384 561.071 676.992 555.031 672.489 549.013C669.652 545.167 669.729 545.658 665.086 546.608C659.89 547.671 656.46 551.508 652.124 553.848C650.963 554.477 650.851 556.068 651.653 557.172C652.766 558.673 654.004 560.103 655.267 561.435C663.931 570.452 668.344 581.883 672.744 593.363C673.013 594.114 672.954 594.726 672.326 594.923C671.809 595.098 670.951 595.182 670.711 594.908C668.013 591.518 664.784 588.351 662.828 584.533C659.353 577.797 655.27 571.578 650.89 565.489C643.398 555.218 645.31 557.247 635.891 562.771C631.057 565.604 630.498 569.061 633.825 573.614C639.029 580.918 643.738 588.507 648.582 598.329C645.974 596.165 644.678 595.347 643.668 594.239C638.427 588.441 633.345 582.634 629.519 575.648C627.345 571.666 625.034 571.516 621.133 574.182C620.105 574.899 619.042 575.555 618.085 576.396C615.801 578.293 615.504 579.99 617.442 581.922C623.321 587.682 626.548 595.344 631.261 601.942C631.609 602.401 631.829 603.139 631.783 603.702C631.75 604.216 631.252 604.71 630.865 605.181C630.715 605.35 630.224 605.427 630.091 605.339C629.34 604.824 628.528 604.345 627.989 603.625C623.652 597.965 619.477 592.088 615.016 586.499C611.143 581.643 610.944 581.799 606.72 586.26C605.2 587.839 603.343 589.118 601.872 590.71C599.639 593.195 599.753 596.676 602.234 599.119C609.363 606.26 614.484 614.849 619.111 623.723C620.759 626.937 623.822 629.745 622.956 633.957C622.531 635.934 618.851 632.698 614.706 626.515C614.515 626.254 614.31 626.043 614.18 625.747C609.889 616.596 603.021 609.264 597.675 600.928C596.302 598.835 594.787 598.638 593.059 600.213C590.238 602.75 587.261 605.088 585.356 608.497C583.982 610.899 584.111 611.98 586.228 614.221C590.512 618.716 595.566 622.477 598.259 628.427C598.777 629.612 600.138 630.971 598.485 632.462C590.918 628.915 587.551 620.797 581.262 616.182C577.853 618.77 575.623 621.831 573.793 625.156C571.383 629.476 572.167 632.405 575.83 635.898C581.855 641.697 588.439 646.966 592.846 654.318C593.359 655.135 593.748 656.024 592.746 656.644C592.375 656.858 591.521 656.733 591.085 656.407C587.665 653.764 584.394 650.952 581.4 647.692C578.045 644.021 574.405 640.639 570.826 637.221C569.825 636.273 568.466 636.275 567.734 637.646C566.382 640.159 565.563 643.024 563.958 645.312C561.426 648.919 562.56 652.099 564.631 654.903C566.475 657.384 569.003 659.265 571.169 661.519C574.407 664.845 577.781 668.051 579.939 672.289C580.033 672.524 579.951 673.025 579.801 673.193C579.391 673.554 578.77 674.119 578.38 674.015C577.502 673.779 576.69 673.3 575.953 672.736C571.733 669.565 567.5 666.442 564.751 661.679C564.287 660.875 563.332 660.148 562.379 660.781C561.735 661.236 561.315 662.221 561.106 663.001C560.597 664.904 560.738 666.719 561.663 668.536C566.221 677.862 572.936 685.572 579.254 693.593C580.033 694.586 581.926 694.153 582.216 692.872C584.231 684.368 589.701 678.568 595.903 672.966C601.496 667.879 607.976 663.971 613.734 659.243C625.86 649.27 639.44 641.673 652.364 633.012C655.731 630.779 658.91 628.077 662.513 626.325C670.917 622.254 679.121 617.763 687.431 613.458C702.077 605.782 717.112 598.994 731.947 591.786C733.625 590.982 735.303 590.177 736.852 589.077C741.471 585.872 746.451 583.078 751.339 580.626C758.82 576.882 766.443 573.386 773.924 569.643C781.714 565.721 789.906 562.638 796.196 556.118C796.619 555.709 797.25 555.303 797.838 555.252C804.806 554.403 810.188 549.521 816.425 546.908C820.37 545.247 824.627 543.985 828.079 541.042C830.649 538.857 830.799 535.76 828.174 533.853C825.185 531.744 821.959 529.938 818.921 527.816C813.561 524.025 807.464 522.598 800.934 521.421C801.219 526.411 801.5 530.826 801.672 535.264C801.729 536.22 801.335 537.108 800.288 537.506C799.006 537.999 798.621 536.902 798.413 536.115C797.247 531.881 796.094 527.598 795.052 523.293C794.618 521.399 794.344 519.495 793.045 518.101C791.47 516.372 789.596 517.908 787.857 517.964C785.431 518.045 782.974 517.856 779.512 517.711L779.379 517.623ZM697.226 619.223L697.132 618.989C694.094 620.579 691.021 622.106 688.019 623.758C687.537 623.995 687.098 624.661 686.954 625.198C686.654 626.319 687.378 626.932 688.23 627.265C697.273 631.155 706.176 635.374 715.376 638.679C719.379 640.119 722.798 644.33 727.253 642.912C731.253 641.632 734.861 638.889 738.547 636.636C739.857 635.838 741.074 634.805 742.194 633.746C743.648 632.411 743.543 630.657 741.963 629.92C739.448 628.775 736.927 627.262 734.252 626.91C729.562 626.279 725.484 624.139 721.227 622.474C716.922 620.796 712.704 618.985 708.45 617.111C706.068 616.054 703.722 615.843 701.337 617.137C699.942 617.861 698.56 618.535 697.178 619.21L697.226 619.223ZM701.468 659.414C699.046 656.36 695.331 655.206 692.081 654.073C682.163 650.523 673.004 645.503 663.757 640.617C662.75 640.086 661.083 639.482 660.328 639.959C654.431 643.447 647.596 645.169 642.185 649.572C641.727 649.92 641.287 650.586 641.241 651.149C641.126 652.163 641.812 652.922 642.689 653.158C649.221 654.911 655.946 656.14 662.185 658.598C670.615 661.854 679.446 663.021 688.023 665.531C689.534 665.937 691.302 666.359 692.496 665.215C694.999 662.697 698.974 662.875 701.442 659.512L701.468 659.414ZM667.968 636.206C672.631 638.502 676.533 640.908 680.767 642.463C689.125 645.594 696.991 649.587 704.45 654.516C705.516 655.22 706.542 656.071 707.811 655.627C711.876 654.104 715.944 652.372 718.747 648.733C719.723 647.426 719.217 646.193 718.015 645.609C707.143 640.548 696.144 635.767 685.434 630.488C680.226 627.888 676.034 628.907 671.957 632.623C670.851 633.633 669.696 634.63 667.968 636.206ZM630.117 657.574C628.884 658.08 627.974 658.358 627.219 658.836C626.23 659.407 624.709 659.626 624.84 661.282C624.949 662.827 626.292 663.083 627.449 663.446C636.23 666.168 645.011 668.89 653.394 672.708C657.586 674.617 662.123 675.625 666.468 677.157C668.002 677.673 669.614 677.896 670.821 676.704C673.535 673.982 677.865 674.202 680.352 671.158C677.764 667.745 673.476 667.954 670.113 666.267C668.498 665.468 666.593 665.166 664.773 664.939C659.215 664.232 654.211 661.843 648.976 660.125C645.469 658.975 642.051 657.692 638.518 656.639C635.522 655.731 632.466 655.434 630.104 657.623L630.117 657.574ZM645.341 689.525C642.592 688.473 641.513 687.818 640.366 687.615C634.873 686.664 629.55 685.078 624.419 682.97C619.008 680.734 613.611 678.449 608.266 675.969C605.702 674.811 603.583 674.922 601.445 676.858C600.065 678.108 598.481 679.147 597.04 680.433C594.716 682.476 595.053 684.344 597.792 685.236C606.317 687.941 615.033 690.123 623.251 693.583C629.305 696.148 634.425 695.954 639.809 692.432C641.071 691.62 642.489 691.007 645.306 689.463L645.341 689.525ZM610.107 671.235C612.889 672.557 614.464 673.502 616.158 674.009C624.048 676.544 631.86 679.373 639.265 683.137C641.754 684.38 644.448 685.05 647.038 686.111C649.238 687.068 651.189 686.807 653.134 685.394C654.881 684.138 657.154 683.65 658.294 681.342C657.555 679.418 655.676 679.019 653.987 678.304C648.869 676.146 643.826 673.904 638.646 671.783C633.794 669.801 628.803 668.148 623.977 666.069C620.101 664.349 616.846 664.992 613.703 667.756C612.746 668.598 611.887 669.465 610.059 671.222L610.107 671.235ZM770.29 614.465C771.055 614.147 772.225 613.677 773.361 613.145C773.656 613.016 773.868 612.811 774.128 612.619C775.293 611.782 775.458 609.212 774.405 608.459C773.389 607.768 772.411 606.931 771.254 606.568C764.179 604.304 757.459 601.298 750.831 597.951C745.538 595.276 740.743 595.819 736.094 599.33C734.656 600.408 732.032 600.645 732.082 602.801C732.089 605.313 734.768 604.672 736.338 605.25C739.477 606.406 742.753 607.442 745.883 608.439C751.534 610.164 756.247 613.834 761.99 615.218C764.831 615.928 767.369 616.4 770.29 614.465ZM617.448 703.946C619.055 703.017 620.697 702.151 622.281 701.113C622.665 700.85 623.033 700.059 623.004 699.581C622.976 699.103 622.499 698.348 622.06 698.23C611.855 694.969 601.576 691.793 591.297 688.616C589.994 688.214 588.797 688.782 588.081 689.897C587.215 691.181 586.566 692.627 585.967 694.087C584.891 696.935 585.29 697.983 588.286 698.892C594.718 700.827 601.328 702.287 607.695 704.466C611.188 705.664 614.221 705.851 617.435 703.994L617.448 703.946ZM757.273 588.91C756.519 589.387 755.751 589.913 754.961 590.329C753.8 590.958 752.759 591.724 752.699 593.12C752.58 595.127 754.26 595.682 755.686 596.013C763.171 597.916 770.288 600.61 777.082 604.315C779.678 605.744 782.464 605.289 784.985 603.874C785.665 603.481 786.16 602.412 786.444 601.547C786.854 600.402 785.847 599.871 785.106 599.515C776.989 595.873 768.908 592.293 760.765 588.749C759.647 588.24 758.49 587.877 757.273 588.91ZM797.405 592.411C789.802 588.019 782.342 584.658 774.451 582.122C772.576 581.515 770.902 581.327 769.23 582.499C768.202 583.216 766.599 583.936 766.461 584.84C766.147 586.795 768.074 587.208 769.475 587.636C776.199 589.649 781.955 593.912 788.588 596.267C792.835 597.772 794.83 596.373 797.294 592.434L797.405 592.411ZM807.949 584.052C807.602 583.593 807.307 582.939 806.845 582.711C801.877 580.384 796.694 578.471 791.879 575.767C788.155 573.67 784.796 574.703 781.336 575.919C780.881 576.058 780.428 576.773 780.334 577.322C780.19 577.859 780.407 578.806 780.771 579.008C787.429 582.049 794.161 585.006 800.819 588.047C803.104 589.078 805.832 587.667 807.812 584.957C807.974 584.739 807.968 584.371 808.011 584.017L807.949 584.052ZM820.149 574.779C814.217 570.782 808.09 569.661 802.397 567.506C799.696 566.468 797.599 567.473 795.494 568.895C794.355 569.635 794.276 571.496 795.406 571.956C801.376 574.447 807.296 576.924 813.292 579.317C814.569 579.816 815.717 579.236 816.687 578.346C817.806 577.287 818.854 576.104 820.149 574.779ZM840.298 558.646C839.941 558.027 839.795 557.204 839.369 557.037C835.392 555.5 831.463 553.975 827.407 552.73C826.432 552.468 825.05 553.143 824.012 553.701C821.566 555.031 821.519 557.162 823.959 558.392C826.896 559.912 829.97 561.312 833.061 562.455C835.664 563.467 837.813 562.266 839.526 560.164C839.913 559.693 840.083 559.058 840.311 558.597L840.298 558.646ZM828.492 567.032C828.167 566.683 827.706 565.671 826.988 565.426C821.89 563.587 816.729 561.784 811.516 560.176C810.346 559.863 809.165 560.957 808.741 562.151C808.23 563.477 808.625 564.733 810.052 565.064C814.54 566.059 818.683 567.955 822.738 569.984C823.794 570.529 825.052 570.71 826.226 570.815C827.435 570.983 829.154 568.464 828.505 566.983L828.492 567.032ZM603.642 709.652C600.008 706.637 596.493 706.688 593.429 705.448C591.872 704.821 589.865 703.341 588.559 705.291C587.706 706.526 589.086 708.203 589.885 709.515C592.449 713.863 595.902 714.755 600.246 712.191C601.248 711.571 602.191 710.778 603.642 709.652ZM843.441 552.17C843.114 550.461 841.73 549.777 840.404 549.264C839.03 548.738 836.917 548.433 836.308 549.733C835.19 552.152 837.834 551.45 838.89 551.994C839.946 552.539 841.054 552.889 842.175 553.19C842.907 553.386 843.343 552.928 843.392 552.157L843.441 552.17Z"
        fill="url(#paint2_radial_0_1)"/>
    <path
        d="M846.538 578.429C845.689 578.672 844.85 579.074 844.018 579.06C843.026 579.055 842.244 578.27 842.518 577.246C842.844 576.026 843.965 576.327 844.631 576.767C845.346 577.22 845.81 578.024 846.411 578.708L846.476 578.464L846.538 578.429Z"
        fill="url(#paint3_radial_0_1)"/>
    <path
        d="M211.064 389.646C208.901 387.45 208.19 384.666 207.171 381.882C205.255 376.624 204.729 370.933 202.381 365.83C202.937 362.706 200.558 360.355 200.249 357.54C199.94 354.818 199.661 352.034 198.765 349.529C197.189 345.199 198.178 340.683 197.189 336.353C198.673 332.425 196.509 327.754 199.445 324.104C199.569 320.517 201.423 317.485 202.381 314.176C203.462 310.371 205.687 307.588 208.129 304.959C210.755 302.113 213.196 299.298 214.834 295.71C215.607 294.009 217.152 292.679 218.264 291.164C220.52 288.07 222.93 285.101 225.248 282.101C228.153 278.358 232.108 275.482 235.724 272.389C240.915 267.904 246.107 263.512 251.731 259.614C258.128 255.161 264.401 250.521 271.786 247.892C275.834 244.49 281.088 243.747 285.507 241.18C288.751 239.262 292.367 238.149 295.611 236.138C298.114 234.592 301.297 233.973 304.264 233.54C308.003 232.983 311.711 232.489 315.234 231.066C315.419 231.004 315.574 230.88 315.759 230.88C320.796 230.973 325.772 229.581 330.839 230.169C333.157 230.447 335.227 231.313 337.298 232.241C339.028 233.014 340.234 234.344 341.037 236.355C343.416 242.386 347.31 247.49 351.636 252.129C354.325 255.037 357.415 257.728 360.721 259.8C364.152 261.965 367.149 264.594 370.208 267.192C373.36 269.852 374.751 273.843 376.358 277.523C377.316 279.75 377.903 282.07 377.501 284.823C377.069 287.792 377.563 290.947 377.285 294.071C377.13 295.834 376.79 297.473 376.481 299.175C374.844 307.804 370.703 315.537 368.354 323.919C368.107 324.785 367.396 325.558 366.871 326.331C366.222 327.29 365.14 328.094 364.924 329.146C363.719 334.497 359.609 337.93 357.106 342.384C355.592 345.106 353.243 347.055 351.698 349.777C350.215 352.406 348.175 354.818 345.363 356.241C343.2 360.014 339.616 362.334 336.711 365.335C335.66 366.417 334.857 367.654 333.404 368.242C332.724 368.52 331.952 368.953 331.581 369.572C329.758 372.448 326.791 373.933 324.35 376.036C318.139 381.387 311.155 385.656 304.635 390.574C303.893 391.131 302.966 391.471 302.07 391.78C300.463 392.337 299.011 392.863 297.682 394.224C296.446 395.554 294.623 396.358 292.707 396.822C290.883 397.286 288.875 397.75 287.453 398.925C282.138 403.348 275.433 404.245 269.314 406.472C266.656 407.431 263.721 408.606 260.538 408.018C259.147 407.771 257.571 408.544 256.088 408.699C252.905 409.07 249.66 409.287 246.57 408.266C242.955 407.091 239.154 407.524 235.507 406.225C228.493 403.75 221.942 400.595 216.256 395.646C214.247 393.883 212.362 391.996 211.064 389.677L211.064 389.646ZM288.442 332.456C287.67 331.002 286.217 331.126 284.981 331.002C280.284 330.538 275.587 330.167 270.89 329.888C269.561 329.796 268.294 329.826 267.12 329.022C264.895 327.569 263.412 328.373 261.99 330.507C260.754 332.332 258.313 333.198 257.942 335.92C258.591 336.074 259.116 336.384 259.642 336.322C265.513 335.641 271.261 336.26 277.009 337.528C282.046 338.642 285.785 336.662 288.442 332.239L288.535 332.177L288.473 332.456L288.442 332.456ZM214.68 373.562L214.68 373.407C213.135 374.335 211.899 375.294 212.887 377.583C213.629 379.315 213.969 381.202 215.576 382.779C216.657 381.48 217.801 380.429 218.542 379.161C221.354 374.243 225.31 370.252 228.802 365.922C229.883 364.561 231.15 363.262 231.707 361.654C233.004 357.88 236.651 355.777 237.856 352.004C241.935 348.477 244.407 343.529 248.177 339.724C248.981 338.92 249.846 338.116 250.402 337.126C252.318 333.755 256.026 331.899 257.417 328.156C262.114 323.95 266.162 319.094 270.396 314.423C274.907 309.443 278.894 303.969 284.24 299.855C284.703 299.515 285.198 299.113 285.445 298.618C286.774 295.896 289.307 294.411 291.378 292.463C294.715 289.308 298.238 286.338 301.668 283.276C307.169 278.297 312.515 273.069 318.201 268.306C324.505 263.048 331.148 258.223 337.669 253.243C338.719 252.439 339.955 251.789 340.604 250.552C340.852 250.088 341.068 249.253 340.852 248.943C338.843 246.283 338.256 242.881 336.525 240.097C335.444 238.396 334.115 237.035 332.045 236.85C330.809 236.726 329.294 235.829 328.46 237.407C327.811 238.582 328.924 239.541 329.418 240.561C329.912 241.613 330.407 242.665 330.87 243.747C331.087 244.273 331.365 244.83 331.396 245.387C331.396 245.912 331.272 246.531 330.994 246.933C330.469 247.645 329.881 247.026 329.634 246.655C328.615 245.263 327.657 243.809 326.729 242.355C325.895 241.056 325.184 239.664 324.288 238.427C323.856 237.871 323.052 237.159 322.496 237.221C319.159 237.654 315.698 237.221 312.422 238.273C311.526 238.551 311.062 240.005 311.742 240.654C314.462 243.16 316.13 246.5 318.51 249.284C319.189 250.088 320.178 250.985 319.529 252.222C318.757 252.624 318.417 252.037 318.046 251.634C315.172 248.572 312.267 245.51 309.455 242.355C307.076 239.695 307.107 239.634 303.646 240.902C301.514 241.675 299.381 242.479 297.249 243.283C295.859 243.809 295.488 244.923 296.569 245.912C299.876 248.851 302.008 252.903 305.531 255.625C307.076 256.8 308.158 258.377 307.972 260.542C307.045 260.697 306.365 260.45 305.778 259.893C301.884 256.212 297.744 252.748 294.159 248.727C291.996 246.283 289.987 245.727 287.206 246.748C286.341 247.057 285.167 247.057 284.827 248.078C284.394 249.438 285.599 250.181 286.403 250.923C288.349 252.779 290.358 254.542 292.398 256.274C293.603 257.264 294.684 258.315 295.488 259.676C295.673 259.986 295.89 260.542 295.766 260.759C295.457 261.285 294.87 261.316 294.375 260.975C290.605 258.377 287.083 255.377 283.807 252.16C282.571 250.923 281.335 250.521 279.728 250.954C278.461 251.294 277.132 251.48 275.865 251.882C274.011 252.501 273.671 254.047 275.031 255.377C279.697 259.924 284.394 264.44 289.06 268.986C289.74 269.636 290.296 270.471 290.791 271.275C290.945 271.523 290.976 272.08 290.822 272.296C290.451 272.853 289.802 272.76 289.307 272.451C288.659 272.049 288.102 271.523 287.515 270.997C282.355 266.45 277.194 261.903 272.033 257.326C270.303 255.779 268.758 255.532 266.996 256.862C265.513 257.975 264.184 259.305 262.547 260.79C267.027 265.739 272.93 269.079 277.225 274.306C275.958 274.739 275.124 274.306 274.289 273.781C270.148 271.028 266.038 268.151 262.856 264.254C260.692 261.625 258.375 261.934 255.872 263.666C254.945 264.316 254.141 265.182 253.307 265.955C251.762 267.347 251.762 267.873 253.338 269.017C259.858 273.75 265.39 279.626 271.045 285.349C272.095 286.4 272.806 287.854 273.64 289.122C273.733 289.246 273.702 289.586 273.64 289.617C273.331 289.772 272.868 290.05 272.682 289.926C271.724 289.308 270.797 288.658 269.932 287.916C265.05 283.617 260.229 279.255 255.315 274.987C248.703 269.234 249.908 267.749 241.997 274.801C241.564 275.204 241.193 275.544 241.224 276.41C245.118 279.534 249.135 282.72 253.152 285.967C254.636 287.174 256.026 288.504 257.417 289.803C257.664 290.019 257.695 290.514 257.819 290.854C257.293 290.947 256.644 291.256 256.304 291.04C252.503 288.504 248.455 286.307 245.056 283.183C243.635 281.884 242.028 280.833 240.606 279.565C238.999 278.142 237.207 278.451 235.446 279.843C234.859 280.307 234.333 280.895 233.87 281.482C231.799 284.173 231.799 285.318 234.549 287.143C239.957 290.761 244.562 295.401 249.691 299.422C251.638 300.937 253.276 302.824 255.007 304.618C255.377 304.989 255.563 305.732 254.945 306.134C254.728 306.289 254.203 306.289 253.987 306.134C251.669 304.495 249.321 302.855 247.065 301.123C241.75 297.071 236.527 292.958 231.212 288.906C229.358 287.514 228.307 287.73 227.04 289.617C226.608 290.236 226.268 290.947 225.928 291.658C225.032 293.483 225.094 293.824 226.608 295.092C230.409 298.278 234.21 301.463 238.011 304.649C238.289 304.897 238.567 305.206 238.752 305.515C238.907 305.825 239.092 306.319 238.968 306.598C238.845 306.845 238.32 307.031 238.011 306.938C237.485 306.814 236.898 306.598 236.465 306.258C233.159 303.381 229.204 301.309 226.237 297.968C225.743 297.412 225.155 296.855 224.506 296.483C223.579 295.896 222.714 296.143 222.034 297.04C221.54 297.721 221.354 298.494 221.88 299.175C222.467 299.948 223.147 300.628 223.858 301.247C229.451 306.165 235.075 311.052 240.637 316.001C242.059 317.269 243.357 318.692 244.654 320.114C244.809 320.269 244.747 320.888 244.562 321.073C244.376 321.259 243.882 321.29 243.604 321.197C243.078 321.011 242.553 320.733 242.059 320.424C235.477 316.186 229.636 310.99 223.888 305.639C222.9 304.742 222.003 303.721 220.984 302.886C219.871 301.989 218.913 302.144 218.017 303.165C216.874 304.495 215.978 305.948 215.576 307.68C216.843 309.32 218.882 309.505 220.397 310.619C224.692 313.835 228.4 317.733 232.263 321.475C232.386 321.599 232.479 321.815 232.51 322.001C232.572 322.187 232.665 322.496 232.603 322.558C232.325 322.744 231.954 323.053 231.737 322.991C231.027 322.774 230.254 322.527 229.698 322.063C225.31 318.351 220.335 315.413 216.503 311.021C215.112 309.443 213.598 309.412 212.671 310.681C211.929 311.701 212.146 312.969 213.567 314.207C215.885 316.186 218.388 317.949 220.675 319.991C224.105 323.022 227.442 326.208 231.367 328.589C233.128 329.672 234.611 331.218 236.126 332.672C236.435 332.981 236.589 333.786 236.435 334.219C236.218 334.837 235.477 334.806 234.982 334.466C227.349 329.486 219.5 324.754 213.258 317.795C212.393 316.836 211.497 315.753 210.137 315.444C209.952 315.537 209.704 315.568 209.612 315.722C208.901 316.836 208.19 317.949 207.541 319.125C206.089 321.723 206.583 323.919 209.025 325.62C209.952 326.27 210.971 326.795 211.96 327.414C215.669 329.765 219.099 332.486 222.096 335.765C222.776 336.476 223.27 337.312 222.251 338.456C217.708 335.023 213.165 331.59 208.623 328.156C208.005 327.692 207.387 327.228 206.707 326.919C205.842 326.486 205.286 326.919 205.1 327.816C204.791 329.208 204.698 330.662 206.12 331.435C211.682 334.435 216.008 339.198 221.324 342.539C221.787 342.848 222.312 343.188 222.591 343.652C222.838 344.085 222.992 344.735 222.869 345.199C222.683 345.848 221.942 345.941 221.447 345.694C220.118 344.982 218.79 344.209 217.554 343.312C213.691 340.559 209.859 337.714 206.027 334.93C205.378 334.466 204.266 334.868 204.297 335.641C204.358 337.59 203.864 339.477 204.142 341.456C204.482 343.838 205.255 345.446 207.789 345.786C208.685 345.91 209.735 346.189 210.415 346.776C213.907 349.807 218.017 351.756 221.942 354.045C222.683 354.478 223.209 355.406 223.765 356.148C223.858 356.272 223.425 357.076 223.332 357.045C221.88 356.705 220.366 356.458 218.975 355.87C214.432 353.983 210.23 351.447 206.182 348.694C205.625 349.467 205.811 350.241 206.027 350.921C206.831 353.705 208.592 356.117 208.808 359.148C208.808 359.551 209.457 360.107 209.89 360.293C210.941 360.695 212.084 360.85 213.196 361.159C216.874 362.211 220.273 363.819 223.085 366.572C223.425 366.912 223.703 367.685 223.548 368.118C223.425 368.459 222.683 368.768 222.189 368.768C219.809 368.83 217.832 367.592 215.885 366.355C214.154 365.273 212.517 363.974 210.168 364.469C210.23 368.459 212.393 371.088 214.865 373.531L214.68 373.562ZM264.03 398.894C262.454 396.482 261.187 394.564 259.982 392.615C258.931 390.976 258.066 389.244 257.726 387.295C257.664 387.017 257.88 386.491 258.097 386.367C258.375 386.212 258.838 386.274 259.147 386.429C260.569 387.079 261.558 388.192 262.33 389.615C263.597 391.997 265.019 394.316 266.409 396.605C266.811 397.224 267.336 397.966 268.202 397.811C271.137 397.224 274.258 397.162 276.452 394.502C276.205 393.945 276.081 393.327 275.742 392.894C272.775 388.842 270.519 384.357 268.016 379.995C267.831 379.686 267.614 379.253 267.707 378.913C267.769 378.666 268.202 378.356 268.48 378.325C269.314 378.263 269.839 378.882 270.396 379.408C273.053 381.975 274.567 385.377 276.669 388.378C280.748 394.285 280.686 394.502 286.835 390.388C287.113 390.203 287.237 389.769 287.453 389.46C287.052 387.852 285.877 386.8 284.827 385.718C281.984 382.841 279.604 379.563 277.287 376.284C277.132 376.067 277.194 375.48 277.379 375.294C277.565 375.109 278.214 375.047 278.337 375.201C280.13 377.181 282.509 378.418 284.116 380.707C285.63 382.872 287.855 384.542 289.74 386.46C290.822 387.574 291.996 387.759 293.325 386.955C294.128 386.46 294.932 385.934 295.735 385.408C298.485 383.583 298.671 382.192 296.415 379.965C295.581 379.161 294.592 378.573 293.757 377.8C290.544 374.768 287.299 371.799 284.209 368.644C283.034 367.438 282.231 365.829 281.304 364.376C281.18 364.159 281.335 363.571 281.551 363.386C281.737 363.2 282.2 363.262 282.509 363.293C282.664 363.293 282.849 363.479 282.973 363.602C287.33 367.623 292.212 371.026 296.291 375.387C297.867 377.057 299.567 378.604 301.297 380.119C301.854 380.614 302.75 381.016 303.368 380.46C305.222 378.696 307.601 378.047 309.764 376.933C310.537 376.531 310.722 375.758 310.104 375.016C309.61 374.428 309.085 373.871 308.467 373.407C303.862 369.881 300.03 365.613 296.94 360.633C296.569 360.046 295.859 359.427 297.157 358.499C300.154 361.252 303.213 364.035 306.273 366.85C308.374 368.799 310.444 370.809 312.607 372.696C313.318 373.315 314.492 373.933 315.203 373.284C317.088 371.613 319.715 371.211 321.353 369.17C322.249 368.056 322.372 367.005 321.229 366.17C317.459 363.479 314.554 359.86 311.371 356.55C311.093 356.272 310.815 356.025 310.599 355.715C310.506 355.591 310.537 355.22 310.599 355.158C310.877 354.973 311.34 354.726 311.495 354.818C315.11 357.633 318.664 360.51 322.28 363.355C324.566 365.18 324.443 364.902 327.039 363.602C329.943 362.149 331.365 359.334 333.559 357.262C334.146 356.705 333.961 355.746 333.312 355.22C332.415 354.509 331.457 353.859 330.5 353.272C323.948 349.313 319.529 343.25 315.11 337.157C314.832 336.755 314.771 336.384 315.11 336.167C315.389 335.982 315.883 335.796 316.068 335.92C318.201 337.497 320.611 338.858 322.372 340.807C325.493 344.24 328.893 347.271 332.446 350.179C338.503 355.066 337.051 354.169 341.748 349.405C344.158 346.962 343.942 344.828 341.253 342.663C337.02 339.168 333.033 335.425 328.615 330.383C330.5 331.249 331.396 331.528 332.168 332.023C336.185 334.621 340.11 337.25 343.478 340.776C345.394 342.786 346.785 342.508 348.67 340.312C349.164 339.724 349.69 339.167 350.122 338.518C351.173 337.033 351.08 335.982 349.628 335.146C345.24 332.672 342.119 328.651 338.287 325.496C338.009 325.28 337.761 324.878 337.7 324.537C337.638 324.228 337.854 323.857 338.009 323.517C338.07 323.393 338.349 323.269 338.441 323.3C338.967 323.486 339.523 323.64 339.955 323.981C343.416 326.641 346.816 329.455 350.338 332.053C353.398 334.311 353.49 334.188 355.283 330.878C355.932 329.703 356.828 328.651 357.446 327.476C358.373 325.651 357.755 323.61 355.901 322.558C350.555 319.465 346.167 315.196 342.026 310.681C340.543 309.041 338.287 307.866 338.132 305.237C338.07 304 340.759 305.33 344.189 308.33C344.344 308.454 344.498 308.546 344.622 308.701C348.608 313.433 353.83 316.681 358.311 320.764C359.454 321.785 360.382 321.661 361.154 320.455C362.421 318.506 363.812 316.65 364.399 314.33C364.831 312.691 364.584 312.072 362.977 311.083C359.733 309.103 356.148 307.68 353.614 304.587C353.12 303.969 352.1 303.381 352.841 302.237C357.878 303.134 361.154 307.402 365.604 309.134C367.211 307.062 368.045 304.897 368.601 302.639C369.343 299.7 368.416 298.092 365.697 296.607C361.216 294.133 356.488 292.06 352.718 288.411C352.285 288.009 351.914 287.545 352.409 287.019C352.594 286.833 353.12 286.771 353.429 286.895C355.87 287.916 358.249 289.06 360.536 290.514C363.101 292.153 365.789 293.576 368.447 295.03C369.189 295.432 369.992 295.215 370.208 294.288C370.61 292.586 370.641 290.761 371.228 289.153C372.155 286.617 370.981 284.916 369.312 283.586C367.829 282.41 366.037 281.699 364.399 280.709C361.958 279.255 359.454 277.894 357.508 275.729C357.415 275.606 357.384 275.296 357.446 275.173C357.631 274.894 357.909 274.461 358.157 274.461C358.713 274.461 359.269 274.616 359.794 274.832C362.792 276.038 365.789 277.214 368.169 279.596C368.571 279.998 369.25 280.276 369.714 279.75C370.023 279.379 370.116 278.73 370.116 278.235C370.116 277.028 369.745 275.977 368.91 275.049C364.739 270.255 359.547 266.76 354.541 263.017C353.923 262.553 352.872 263.11 352.903 263.914C353.058 269.265 350.74 273.564 347.959 277.864C345.456 281.761 342.242 285.101 339.585 288.813C333.991 296.638 327.162 303.288 320.889 310.464C319.251 312.32 317.799 314.423 315.945 316.031C311.619 319.774 307.478 323.733 303.244 327.599C295.797 334.466 287.979 340.869 280.346 347.488C279.481 348.23 278.615 348.972 277.874 349.869C275.649 352.498 273.146 354.942 270.643 357.169C266.811 360.571 262.856 363.85 259.024 367.252C255.037 370.809 250.68 373.933 247.992 378.789C247.806 379.099 247.497 379.439 247.157 379.563C243.171 381.171 240.761 384.914 237.485 387.45C235.415 389.058 233.097 390.481 231.521 392.77C230.347 394.471 230.749 396.327 232.603 397.038C234.704 397.811 236.898 398.368 239.03 399.141C242.8 400.533 246.632 400.41 250.68 400.069C249.722 397.162 248.857 394.595 248.054 391.996C247.868 391.44 247.961 390.852 248.517 390.45C249.197 389.955 249.599 390.543 249.846 390.976C251.206 393.296 252.565 395.646 253.863 398.028C254.419 399.08 254.883 400.162 255.872 400.781C257.077 401.554 257.942 400.348 258.962 400.039C260.383 399.605 261.867 399.327 263.937 398.863L264.03 398.894ZM296.538 325.744L296.631 325.867C298.176 324.445 299.752 323.053 301.266 321.599C301.514 321.383 301.668 320.919 301.668 320.578C301.668 319.867 301.143 319.619 300.587 319.558C294.623 318.692 288.689 317.609 282.725 317.114C280.13 316.898 277.441 314.949 275.031 316.496C272.868 317.887 271.168 320.083 269.345 322.001C268.696 322.681 268.14 323.486 267.645 324.29C266.996 325.311 267.336 326.331 268.387 326.517C270.056 326.795 271.786 327.29 273.424 327.074C276.298 326.702 279.048 327.321 281.829 327.63C284.641 327.94 287.422 328.342 290.235 328.775C291.81 329.022 293.232 328.775 294.437 327.63C295.148 326.981 295.859 326.362 296.569 325.744L296.538 325.744ZM287.67 302.639C289.586 304.062 291.965 304.154 294.066 304.309C300.494 304.835 306.705 306.35 312.947 307.773C313.627 307.928 314.709 308.021 315.08 307.619C318.015 304.618 321.785 302.515 324.288 299.051C324.505 298.772 324.659 298.308 324.597 297.968C324.505 297.35 323.979 297.009 323.423 297.009C319.282 297.009 315.11 297.35 311.031 296.886C305.531 296.298 300.123 297.009 294.653 296.886C293.696 296.886 292.583 296.917 292.058 297.783C290.976 299.669 288.597 300.195 287.67 302.577L287.67 302.639ZM311.155 311.052C308.034 310.433 305.345 309.629 302.595 309.382C297.157 308.856 291.872 307.742 286.681 306.01C285.939 305.763 285.198 305.422 284.518 305.886C282.355 307.433 280.222 309.103 279.141 311.701C278.77 312.629 279.264 313.279 280.068 313.433C287.299 314.702 294.561 315.784 301.73 317.207C305.222 317.918 307.54 316.65 309.363 313.805C309.857 313.031 310.382 312.258 311.155 311.052ZM330.16 292.401C330.809 291.906 331.303 291.597 331.674 291.194C332.168 290.7 333.033 290.328 332.694 289.37C332.385 288.473 331.55 288.534 330.809 288.504C325.184 288.287 319.56 288.071 313.998 287.143C311.217 286.679 308.374 286.802 305.562 286.586C304.573 286.524 303.584 286.648 303.059 287.545C301.885 289.586 299.289 290.143 298.3 292.339C300.37 293.947 302.873 293.143 305.129 293.607C306.211 293.823 307.385 293.7 308.497 293.545C311.897 293.081 315.234 293.7 318.602 293.885C320.858 294.009 323.083 294.226 325.339 294.288C327.255 294.349 329.109 294.04 330.16 292.37L330.16 292.401ZM316.099 275.915C317.892 276.1 318.633 276.317 319.344 276.255C322.743 275.946 326.142 276.039 329.511 276.472C333.064 276.936 336.618 277.43 340.172 278.049C341.871 278.327 343.107 277.925 344.065 276.441C344.683 275.482 345.456 274.616 346.105 273.626C347.156 272.049 346.661 270.997 344.9 270.904C339.43 270.657 333.93 270.749 328.522 270.007C324.535 269.45 321.538 270.378 318.911 273.317C318.293 273.997 317.552 274.585 316.13 275.946L316.099 275.915ZM339.832 281.142C337.978 280.802 336.896 280.492 335.815 280.462C330.747 280.214 325.679 279.781 320.704 278.729C319.035 278.389 317.335 278.42 315.636 278.204C314.183 277.987 313.071 278.451 312.144 279.596C311.31 280.616 310.043 281.266 309.734 282.812C310.475 283.833 311.649 283.771 312.762 283.926C316.13 284.39 319.468 284.916 322.867 285.349C326.05 285.751 329.263 285.936 332.446 286.4C335.011 286.802 336.834 285.905 338.256 283.771C338.689 283.122 339.059 282.472 339.863 281.142L339.832 281.142ZM254.079 340.157C253.678 340.467 253.06 340.931 252.473 341.425C252.318 341.549 252.225 341.704 252.102 341.858C251.545 342.539 251.855 344.085 252.596 344.364C253.307 344.611 254.018 344.952 254.759 344.982C259.302 345.199 263.752 345.91 268.202 346.838C271.755 347.581 274.505 346.498 276.7 343.683C277.379 342.817 278.894 342.26 278.523 340.992C278.121 339.508 276.638 340.312 275.618 340.219C273.578 340.033 271.477 339.941 269.469 339.848C265.853 339.724 262.485 338.301 258.869 338.394C257.077 338.425 255.501 338.549 254.079 340.157ZM330.314 262.955C329.511 263.759 328.676 264.532 327.904 265.398C327.718 265.615 327.626 266.141 327.718 266.419C327.811 266.698 328.213 267.069 328.491 267.069C335.042 267.378 341.624 267.625 348.206 267.873C349.041 267.904 349.659 267.378 349.906 266.605C350.215 265.708 350.369 264.749 350.493 263.79C350.678 261.934 350.277 261.377 348.361 261.316C344.251 261.192 340.11 261.377 336 261.099C333.744 260.944 331.921 261.316 330.314 262.924L330.314 262.955ZM265.822 353.21C266.193 352.808 266.564 352.375 266.965 352.004C267.553 351.447 268.047 350.828 267.862 349.993C267.614 348.787 266.533 348.725 265.637 348.756C260.909 348.818 256.273 348.354 251.669 347.24C249.908 346.807 248.332 347.519 247.065 348.756C246.725 349.096 246.601 349.808 246.57 350.364C246.508 351.107 247.188 351.261 247.683 351.354C253.06 352.22 258.406 353.055 263.783 353.859C264.524 353.983 265.266 354.014 265.822 353.21ZM241.533 357.509C246.725 358.901 251.669 359.705 256.737 359.953C257.942 360.015 258.962 359.86 259.765 358.901C260.26 358.313 261.094 357.633 261.032 357.076C260.909 355.87 259.704 355.932 258.807 355.901C254.512 355.777 250.433 354.169 246.138 353.829C243.387 353.612 242.429 354.756 241.595 357.478L241.533 357.509ZM236.62 364.128C236.898 364.345 237.176 364.685 237.485 364.747C240.792 365.335 244.16 365.644 247.436 366.479C249.97 367.128 251.793 365.984 253.647 364.716C253.894 364.561 254.049 364.066 254.018 363.726C254.018 363.386 253.74 362.86 253.492 362.798C249.073 362.056 244.623 361.376 240.205 360.633C238.69 360.386 237.3 361.654 236.558 363.571C236.496 363.726 236.558 363.943 236.589 364.159L236.62 364.128ZM230.872 371.552C235.013 372.974 238.814 372.665 242.522 373.036C244.284 373.222 245.365 372.294 246.385 371.118C246.941 370.5 246.694 369.386 245.952 369.294C242.028 368.768 238.134 368.242 234.21 367.778C233.375 367.685 232.788 368.211 232.355 368.892C231.861 369.696 231.428 370.562 230.872 371.552ZM221.509 384.295C221.818 384.604 222.034 385.068 222.312 385.099C224.908 385.377 227.473 385.656 230.069 385.749C230.687 385.749 231.398 385.13 231.923 384.635C233.159 383.46 232.85 382.192 231.212 381.851C229.234 381.418 227.195 381.078 225.186 380.893C223.487 380.707 222.405 381.759 221.725 383.274C221.571 383.614 221.571 384.017 221.509 384.326L221.509 384.295ZM227.164 377.459C227.411 377.614 227.844 378.14 228.307 378.171C231.614 378.449 234.951 378.697 238.289 378.82C239.03 378.82 239.556 377.985 239.617 377.212C239.71 376.346 239.277 375.665 238.381 375.696C235.569 375.82 232.819 375.356 230.1 374.799C229.389 374.645 228.616 374.737 227.906 374.861C227.164 374.954 226.546 376.717 227.164 377.49L227.164 377.459ZM337.576 257.388C340.203 258.594 342.273 258.006 344.282 258.254C345.301 258.377 346.723 258.934 347.186 257.573C347.496 256.707 346.414 255.934 345.734 255.284C343.53 253.119 341.346 253.14 339.183 255.346C338.688 255.872 338.256 256.491 337.576 257.388ZM220.675 388.625C221.138 389.584 222.065 389.769 222.93 389.862C223.827 389.955 225.124 389.8 225.279 388.934C225.557 387.326 224.105 388.161 223.394 388.007C222.683 387.852 221.973 387.821 221.262 387.821C220.798 387.821 220.613 388.161 220.706 388.625L220.675 388.625Z"
        fill="url(#paint4_radial_0_1)"/>
    <path
        d="M214.68 373.562C215.143 373.284 215.576 372.913 216.07 372.789C216.657 372.634 217.245 372.974 217.245 373.624C217.245 374.397 216.534 374.397 216.07 374.242C215.576 374.088 215.174 373.686 214.711 373.376L214.711 373.531L214.68 373.562Z"
        fill="url(#paint5_radial_0_1)"/>
    <path
        d="M26.8078 998.046C22.6284 993.802 21.2551 988.424 19.2849 983.046C15.5831 972.886 14.5682 961.89 10.0306 952.03C11.1053 945.994 6.50794 941.452 5.91086 936.014C5.31382 930.755 4.77649 925.376 3.04502 920.536C6.36864e-05 912.169 1.91056 903.444 2.44757e-06 895.077C2.86585 887.488 -1.31357 878.464 4.35846 871.412C4.59729 864.48 8.17969 858.623 10.0306 852.229C12.1202 844.878 16.4191 839.5 21.1358 834.42C26.2108 828.922 30.9275 823.484 34.0919 816.552C35.5845 813.265 38.5698 810.695 40.7192 807.767C45.0777 801.791 49.7347 796.054 54.2126 790.257C59.8249 783.026 67.4672 777.468 74.4528 771.492C84.4833 762.827 94.5139 754.341 105.38 746.811C117.739 738.205 129.859 729.241 144.129 724.162C151.951 717.588 162.1 716.154 170.638 711.194C176.907 707.489 183.893 705.337 190.162 701.453C194.998 698.465 201.148 697.269 206.88 696.433C214.104 695.357 221.269 694.401 228.075 691.652C228.433 691.532 228.732 691.293 229.09 691.293C238.822 691.473 248.435 688.783 258.226 689.919C262.704 690.456 266.704 692.13 270.705 693.923C274.048 695.417 276.377 697.986 277.929 701.871C282.526 713.524 290.049 723.385 298.408 732.349C303.602 737.966 309.573 743.165 315.962 747.169C322.589 751.353 328.38 756.432 334.291 761.452C340.381 766.592 343.068 774.301 346.173 781.413C348.023 785.715 349.158 790.197 348.382 795.516C347.546 801.253 348.501 807.349 347.964 813.385C347.665 816.791 347.008 819.958 346.411 823.245C343.247 839.918 335.246 854.859 330.709 871.054C330.231 872.727 328.858 874.221 327.843 875.715C326.589 877.568 324.499 879.121 324.082 881.153C321.753 891.492 313.812 898.125 308.976 906.731C306.05 911.99 301.513 915.755 298.528 921.014C295.662 926.093 291.721 930.755 286.288 933.504C282.109 940.794 275.183 945.276 269.57 951.073C267.54 953.165 265.988 955.555 263.182 956.691C261.868 957.229 260.376 958.065 259.659 959.26C256.137 964.818 250.405 967.687 245.688 971.751C233.687 982.089 220.194 990.336 207.596 999.838C206.163 1000.91 204.372 1001.57 202.641 1002.17C199.536 1003.24 196.73 1004.26 194.162 1006.89C191.774 1009.46 188.251 1011.01 184.55 1011.91C181.027 1012.81 177.146 1013.7 174.4 1015.97C164.13 1024.52 151.174 1026.25 139.353 1030.56C134.218 1032.41 128.546 1034.68 122.396 1033.54C119.71 1033.06 116.665 1034.56 113.799 1034.86C107.649 1035.58 101.38 1035.99 95.4094 1034.02C88.4238 1031.75 81.0801 1032.59 74.0349 1030.08C60.4817 1025.3 47.8241 1019.2 36.8383 1009.64C32.9574 1006.23 29.3154 1002.59 26.8078 998.105L26.8078 998.046ZM176.31 887.547C174.818 884.739 172.012 884.978 169.623 884.739C160.548 883.843 151.473 883.125 142.398 882.588C139.83 882.408 137.382 882.468 135.114 880.914C130.815 878.105 127.949 879.659 125.202 883.783C122.814 887.308 118.098 888.982 117.381 894.241C118.635 894.539 119.65 895.137 120.665 895.018C132.009 893.703 143.114 894.898 154.219 897.348C163.951 899.5 171.176 895.675 176.31 887.129L176.489 887.01L176.37 887.547L176.31 887.547ZM33.7933 966.97L33.7933 966.671C30.808 968.464 28.4198 970.316 30.3304 974.739C31.7633 978.085 32.4201 981.731 35.5248 984.778C37.6144 982.268 39.8236 980.237 41.2565 977.787C46.6897 968.285 54.332 960.575 61.0787 952.209C63.1684 949.579 65.6163 947.069 66.691 943.962C69.1987 936.671 76.244 932.607 78.5725 925.316C86.4536 918.504 91.23 908.942 98.5141 901.591C100.066 900.038 101.738 898.484 102.813 896.571C106.515 890.058 113.679 886.472 116.366 879.241C125.441 871.114 133.263 861.731 141.442 852.707C150.159 843.086 157.861 832.508 168.19 824.56C169.086 823.902 170.041 823.125 170.519 822.169C173.086 816.91 177.982 814.042 181.982 810.277C188.431 804.181 195.237 798.444 201.864 792.528C212.492 782.907 222.821 772.807 233.807 763.604C245.987 753.444 258.823 744.122 271.421 734.5C273.451 732.946 275.839 731.691 277.093 729.301C277.571 728.405 277.989 726.791 277.571 726.193C273.69 721.054 272.556 714.48 269.212 709.102C267.122 705.815 264.555 703.186 260.555 702.827C258.167 702.588 255.241 700.855 253.629 703.903C252.375 706.174 254.525 708.026 255.48 709.998C256.435 712.03 257.391 714.062 258.286 716.154C258.704 717.17 259.241 718.245 259.301 719.321C259.301 720.337 259.062 721.532 258.525 722.309C257.51 723.684 256.375 722.488 255.898 721.771C253.928 719.082 252.077 716.273 250.285 713.464C248.673 710.954 247.3 708.265 245.569 705.875C244.733 704.799 243.181 703.425 242.106 703.544C235.658 704.381 228.971 703.544 222.642 705.576C220.91 706.114 220.015 708.923 221.328 710.178C226.582 715.018 229.807 721.473 234.404 726.851C235.717 728.405 237.628 730.138 236.374 732.528C234.881 733.305 234.225 732.169 233.508 731.393C227.956 725.476 222.343 719.56 216.91 713.464C212.313 708.325 212.372 708.206 205.685 710.656C201.566 712.15 197.446 713.704 193.326 715.257C190.64 716.273 189.923 718.425 192.013 720.337C198.401 726.014 202.521 733.843 209.327 739.102C212.313 741.373 214.403 744.42 214.044 748.604C212.253 748.902 210.94 748.425 209.805 747.349C202.282 740.237 194.282 733.544 187.356 725.775C183.177 721.054 179.296 719.978 173.922 721.951C172.25 722.548 169.982 722.548 169.325 724.52C168.489 727.15 170.817 728.584 172.37 730.018C176.131 733.604 180.012 737.01 183.953 740.357C186.281 742.269 188.371 744.301 189.923 746.931C190.281 747.528 190.699 748.604 190.461 749.022C189.864 750.038 188.729 750.098 187.774 749.44C180.49 744.42 173.683 738.624 167.355 732.409C164.966 730.018 162.578 729.241 159.473 730.078C157.026 730.735 154.458 731.094 152.01 731.871C148.428 733.066 147.771 736.054 150.398 738.624C159.414 747.409 168.489 756.134 177.504 764.919C178.818 766.174 179.893 767.787 180.848 769.341C181.147 769.819 181.206 770.895 180.908 771.313C180.191 772.389 178.937 772.209 177.982 771.612C176.728 770.835 175.654 769.819 174.519 768.803C164.548 760.018 154.578 751.233 144.607 742.389C141.263 739.401 138.278 738.922 134.875 741.492C132.009 743.644 129.442 746.213 126.277 749.082C134.934 758.644 146.338 765.098 154.637 775.197C152.189 776.034 150.577 775.197 148.965 774.181C140.965 768.863 133.024 763.305 126.874 755.775C122.695 750.695 118.217 751.293 113.381 754.64C111.59 755.895 110.037 757.568 108.425 759.062C105.44 761.751 105.44 762.767 108.485 764.978C121.083 774.122 131.77 785.476 142.696 796.532C144.726 798.564 146.099 801.373 147.711 803.823C147.891 804.062 147.831 804.719 147.711 804.779C147.114 805.078 146.219 805.615 145.861 805.376C144.01 804.181 142.219 802.926 140.547 801.492C131.113 793.185 121.799 784.759 112.306 776.512C99.5291 765.397 101.858 762.528 86.573 776.154C85.7371 776.931 85.0206 777.588 85.0804 779.261C92.6032 785.297 100.365 791.452 108.127 797.727C110.993 800.058 113.679 802.628 116.366 805.137C116.844 805.556 116.903 806.512 117.142 807.17C116.127 807.349 114.873 807.946 114.217 807.528C106.873 802.628 99.0515 798.384 92.4839 792.349C89.7374 789.839 86.6327 787.807 83.8863 785.357C80.7816 782.608 77.3187 783.205 73.9154 785.895C72.781 786.791 71.766 787.926 70.8704 789.062C66.8701 794.261 66.8701 796.472 72.1839 799.998C82.6324 806.99 91.5286 815.954 101.44 823.723C105.201 826.651 108.366 830.297 111.709 833.763C112.426 834.48 112.784 835.914 111.59 836.691C111.172 836.99 110.157 836.99 109.739 836.691C105.261 833.524 100.723 830.356 96.3647 827.01C86.0953 819.181 76.0052 811.233 65.7358 803.405C62.1535 800.715 60.1234 801.134 57.6755 804.779C56.8397 805.974 56.1829 807.349 55.5261 808.723C53.7947 812.249 53.9141 812.907 56.8397 815.357C64.1834 821.512 71.5272 827.667 78.871 833.823C79.4084 834.301 79.9456 834.898 80.3039 835.496C80.6024 836.094 80.9607 837.05 80.7219 837.588C80.483 838.066 79.468 838.424 78.871 838.245C77.856 838.006 76.7216 837.588 75.8857 836.93C69.4973 831.373 61.855 827.369 56.1232 820.914C55.1679 819.839 54.0334 818.763 52.7796 818.046C50.9885 816.91 49.3168 817.389 48.0033 819.122C47.048 820.436 46.6897 821.93 47.7047 823.245C48.8391 824.739 50.1527 826.054 51.5259 827.249C62.3326 836.751 73.1989 846.193 83.9459 855.755C86.6924 858.205 89.2 860.954 91.7076 863.703C92.0062 864.002 91.8868 865.197 91.5285 865.556C91.1703 865.914 90.215 865.974 89.6777 865.795C88.6627 865.436 87.6477 864.898 86.6924 864.301C73.9751 856.114 62.6908 846.074 51.5855 835.735C49.675 834.002 47.9435 832.03 45.9732 830.416C43.8238 828.683 41.973 828.982 40.2415 830.954C38.0324 833.524 36.3009 836.333 35.5248 839.679C37.9727 842.847 41.9133 843.205 44.8389 845.356C53.1379 851.572 60.3026 859.101 67.7658 866.332C68.0046 866.572 68.1837 866.99 68.2434 867.348C68.3629 867.707 68.542 868.305 68.4225 868.424C67.8852 868.783 67.1687 869.38 66.7508 869.261C65.3776 868.842 63.8849 868.364 62.8102 867.468C54.332 860.297 44.7194 854.619 37.3159 846.133C34.6292 843.086 31.7037 843.026 29.9125 845.476C28.4796 847.448 28.8975 849.898 31.6439 852.289C36.1218 856.114 40.958 859.52 45.3762 863.464C52.0035 869.321 58.4517 875.476 66.0343 880.077C69.4375 882.169 72.3034 885.157 75.229 887.966C75.826 888.563 76.1245 890.117 75.826 890.954C75.408 892.149 73.9751 892.089 73.0198 891.432C58.2726 881.811 43.1074 872.667 31.0468 859.221C29.3751 857.368 27.6436 855.277 25.0166 854.679C24.6584 854.858 24.1808 854.918 24.0016 855.217C22.6284 857.368 21.2552 859.52 20.0014 861.791C17.1952 866.811 18.1505 871.054 22.8672 874.341C24.6584 875.596 26.6286 876.611 28.5392 877.806C35.7039 882.348 42.3312 887.607 48.1226 893.942C49.4361 895.316 50.3915 896.93 48.4212 899.141C39.6444 892.508 30.8677 885.874 22.091 879.241C20.8969 878.345 19.7028 877.448 18.3893 876.85C16.7175 876.014 15.6428 876.85 15.2846 878.583C14.6875 881.273 14.5084 884.082 17.2549 885.576C28.0019 891.372 36.3606 900.575 46.63 907.03C47.5256 907.627 48.5406 908.284 49.0779 909.181C49.5556 910.018 49.8541 911.273 49.6153 912.169C49.257 913.424 47.8241 913.603 46.8688 913.125C44.3015 911.751 41.7341 910.257 39.3459 908.524C31.8827 903.205 24.4793 897.707 17.0758 892.329C15.822 891.432 13.6726 892.209 13.7323 893.703C13.8517 897.468 12.8964 901.113 13.4337 904.938C14.0905 909.54 15.5832 912.647 20.479 913.304C22.2105 913.543 24.2404 914.081 25.5539 915.217C32.3007 921.073 40.2415 924.838 47.8242 929.261C49.2571 930.097 50.2721 931.89 51.3468 933.324C51.5259 933.564 50.69 935.117 50.5109 935.057C47.7047 934.4 44.7791 933.922 42.0924 932.786C33.3157 929.141 25.1957 924.241 17.3743 918.922C16.2996 920.416 16.6578 921.91 17.0758 923.225C18.6281 928.603 22.0314 933.265 22.4493 939.121C22.4493 939.898 23.7031 940.974 24.539 941.332C26.5689 942.109 28.7781 942.408 30.9275 943.006C38.0324 945.038 44.6 948.145 50.0332 953.464C50.69 954.121 51.2273 955.615 50.9288 956.452C50.69 957.109 49.257 957.707 48.3017 957.707C43.7044 957.827 39.8833 955.436 36.1218 953.045C32.7783 950.954 29.6139 948.444 25.0763 949.4C25.1957 957.109 29.3751 962.189 34.1516 966.91L33.7933 966.97ZM129.143 1015.91C126.098 1011.25 123.65 1007.55 121.322 1003.78C119.292 1000.61 117.62 997.269 116.963 993.504C116.844 992.966 117.262 991.95 117.68 991.711C118.217 991.412 119.113 991.531 119.71 991.83C122.456 993.085 124.367 995.237 125.859 997.986C128.307 1002.59 131.054 1007.07 133.74 1011.49C134.517 1012.69 135.531 1014.12 137.203 1013.82C142.875 1012.69 148.906 1012.57 153.145 1007.43C152.667 1006.35 152.428 1005.16 151.771 1004.32C146.04 996.492 141.681 987.826 136.845 979.4C136.487 978.802 136.069 977.966 136.248 977.308C136.367 976.83 137.203 976.233 137.741 976.173C139.353 976.053 140.368 977.248 141.442 978.264C146.577 983.224 149.503 989.798 153.563 995.595C161.444 1007.01 161.324 1007.43 173.206 999.48C173.743 999.121 173.982 998.284 174.4 997.687C173.624 994.579 171.355 992.547 169.325 990.456C163.832 984.898 159.235 978.563 154.757 972.229C154.458 971.81 154.578 970.675 154.936 970.316C155.294 969.958 156.548 969.838 156.787 970.137C160.25 973.962 164.847 976.352 167.952 980.775C170.877 984.958 175.176 988.185 178.818 991.89C180.908 994.041 183.177 994.4 185.744 992.846C187.296 991.89 188.849 990.874 190.401 989.858C195.715 986.332 196.073 983.643 191.714 979.34C190.102 977.787 188.192 976.651 186.58 975.157C180.37 969.3 174.101 963.563 168.131 957.468C165.862 955.137 164.31 952.029 162.518 949.221C162.28 948.802 162.578 947.667 162.996 947.308C163.354 946.95 164.25 947.069 164.847 947.129C165.145 947.129 165.504 947.488 165.743 947.727C174.161 955.496 183.594 962.069 191.476 970.496C194.521 973.723 197.804 976.711 201.148 979.639C202.223 980.595 203.954 981.372 205.148 980.296C208.73 976.89 213.328 975.635 217.507 973.484C219 972.707 219.358 971.213 218.164 969.778C217.209 968.643 216.194 967.568 215 966.671C206.103 959.858 198.7 951.611 192.729 941.99C192.013 940.854 190.64 939.659 193.147 937.866C198.939 943.185 204.85 948.563 210.76 954.001C214.82 957.766 218.821 961.651 223 965.296C224.373 966.492 226.642 967.687 228.015 966.432C231.657 963.205 236.732 962.428 239.897 958.484C241.628 956.332 241.867 954.3 239.658 952.687C232.374 947.488 226.762 940.496 220.612 934.101C220.074 933.564 219.537 933.085 219.119 932.488C218.94 932.249 219 931.532 219.119 931.412C219.657 931.054 220.552 930.576 220.851 930.755C227.836 936.193 234.702 941.751 241.688 947.249C246.106 950.775 245.867 950.237 250.883 947.727C256.495 944.918 259.241 939.48 263.48 935.476C264.615 934.4 264.257 932.548 263.003 931.532C261.271 930.157 259.42 928.902 257.57 927.767C244.912 920.117 236.374 908.404 227.836 896.631C227.299 895.854 227.179 895.137 227.836 894.719C228.374 894.36 229.329 894.002 229.687 894.241C233.807 897.288 238.464 899.918 241.867 903.683C247.897 910.316 254.465 916.173 261.331 921.791C273.033 931.233 270.227 929.5 279.302 920.297C283.959 915.576 283.541 911.452 278.347 907.269C270.167 900.516 262.465 893.285 253.928 883.544C257.57 885.217 259.301 885.755 260.794 886.711C268.555 891.731 276.138 896.81 282.646 903.623C286.348 907.508 289.034 906.97 292.676 902.727C293.632 901.592 294.647 900.516 295.483 899.261C297.513 896.392 297.333 894.36 294.527 892.747C286.049 887.966 280.019 880.197 272.615 874.101C272.078 873.683 271.6 872.906 271.481 872.249C271.362 871.651 271.78 870.934 272.078 870.277C272.197 870.038 272.735 869.799 272.914 869.859C273.929 870.217 275.004 870.516 275.839 871.173C282.526 876.313 289.094 881.751 295.9 886.771C301.811 891.133 301.99 890.894 305.453 884.5C306.707 882.229 308.439 880.197 309.633 877.926C311.424 874.4 310.23 870.456 306.648 868.424C296.318 862.448 287.84 854.201 279.84 845.476C276.974 842.309 272.615 840.038 272.317 834.958C272.197 832.568 277.392 835.137 284.019 840.934C284.318 841.173 284.616 841.352 284.855 841.651C292.557 850.795 302.647 857.07 311.305 864.958C313.514 866.93 315.305 866.691 316.797 864.36C319.245 860.595 321.932 857.01 323.067 852.528C323.902 849.36 323.425 848.165 320.32 846.253C314.051 842.428 307.125 839.679 302.229 833.703C301.274 832.508 299.304 831.373 300.737 829.161C310.469 830.895 316.797 839.141 325.395 842.488C328.5 838.484 330.112 834.301 331.186 829.938C332.619 824.261 330.828 821.153 325.574 818.285C316.917 813.504 307.782 809.5 300.498 802.448C299.662 801.671 298.945 800.775 299.901 799.759C300.259 799.4 301.274 799.281 301.871 799.52C306.588 801.492 311.185 803.703 315.603 806.512C320.559 809.679 325.753 812.428 330.888 815.237C332.321 816.014 333.873 815.596 334.291 813.803C335.067 810.516 335.127 806.99 336.261 803.882C338.053 798.982 335.784 795.695 332.56 793.126C329.694 790.855 326.231 789.48 323.067 787.568C318.35 784.759 313.514 782.13 309.752 777.946C309.573 777.707 309.513 777.11 309.633 776.871C309.991 776.333 310.528 775.496 311.006 775.496C312.081 775.496 313.155 775.795 314.17 776.213C319.962 778.544 325.753 780.815 330.351 785.417C331.127 786.193 332.44 786.731 333.336 785.715C333.933 784.998 334.112 783.743 334.112 782.787C334.112 780.456 333.396 778.424 331.784 776.631C323.723 767.369 313.693 760.616 304.02 753.385C302.826 752.488 300.796 753.564 300.856 755.118C301.155 765.456 296.677 773.763 291.303 782.07C286.467 789.6 280.258 796.054 275.123 803.225C264.316 818.345 251.121 831.193 239.001 845.058C235.837 848.643 233.031 852.707 229.448 855.815C221.09 863.046 213.089 870.695 204.909 878.165C190.52 891.432 175.415 903.803 160.668 916.592C158.996 918.026 157.324 919.46 155.891 921.193C151.592 926.273 146.756 930.994 141.92 935.297C134.517 941.87 126.874 948.205 119.471 954.778C111.769 961.651 103.35 967.687 98.1559 977.069C97.7976 977.667 97.2005 978.324 96.5438 978.563C88.8418 981.671 84.1848 988.902 77.856 993.802C73.8557 996.91 69.3778 999.659 66.3328 1004.08C64.064 1007.37 64.8402 1010.95 68.4226 1012.33C72.4825 1013.82 76.7216 1014.9 80.8413 1016.39C88.1254 1019.08 95.5288 1018.84 103.35 1018.18C101.499 1012.57 99.8276 1007.61 98.2753 1002.59C97.9171 1001.51 98.0961 1000.38 99.1708 999.599C100.484 998.643 101.261 999.779 101.738 1000.62C104.365 1005.1 106.992 1009.64 109.5 1014.24C110.575 1016.27 111.47 1018.36 113.381 1019.56C115.709 1021.05 117.381 1018.72 119.351 1018.13C122.098 1017.29 124.964 1016.75 128.964 1015.85L129.143 1015.91ZM191.953 874.58L192.132 874.818C195.118 872.069 198.163 869.381 201.088 866.572C201.566 866.153 201.864 865.257 201.864 864.6C201.864 863.225 200.849 862.747 199.775 862.627C188.252 860.954 176.788 858.863 165.265 857.906C160.25 857.488 155.055 853.723 150.398 856.711C146.219 859.4 142.935 863.643 139.412 867.348C138.159 868.663 137.084 870.217 136.129 871.771C134.875 873.743 135.532 875.715 137.562 876.074C140.786 876.611 144.129 877.568 147.293 877.149C152.846 876.432 158.16 877.627 163.533 878.225C168.967 878.822 174.34 879.599 179.773 880.436C182.818 880.914 185.565 880.436 187.893 878.225C189.266 876.97 190.64 875.775 192.013 874.58L191.953 874.58ZM174.818 829.938C178.519 832.687 183.117 832.867 187.177 833.165C199.596 834.181 211.596 837.11 223.657 839.859C224.97 840.157 227.06 840.337 227.777 839.56C233.449 833.763 240.733 829.699 245.569 823.006C245.987 822.468 246.285 821.572 246.166 820.914C245.987 819.719 244.972 819.062 243.897 819.062C235.897 819.062 227.836 819.719 219.955 818.823C209.328 817.687 198.879 819.062 188.311 818.823C186.46 818.823 184.311 818.883 183.296 820.556C181.206 824.201 176.609 825.217 174.818 829.819L174.818 829.938ZM220.194 846.193C214.164 844.998 208.969 843.444 203.656 842.966C193.147 841.95 182.938 839.799 172.907 836.452C171.474 835.974 170.041 835.317 168.728 836.213C164.548 839.201 160.429 842.428 158.339 847.448C157.623 849.241 158.578 850.496 160.13 850.795C174.101 853.245 188.132 855.336 201.984 858.085C208.73 859.46 213.208 857.01 216.731 851.512C217.686 850.018 218.701 848.524 220.194 846.193ZM256.913 810.158C258.167 809.201 259.122 808.604 259.838 807.827C260.794 806.871 262.465 806.153 261.809 804.301C261.212 802.568 259.6 802.687 258.167 802.628C247.3 802.209 236.434 801.791 225.687 799.998C220.313 799.102 214.82 799.341 209.387 798.923C207.477 798.803 205.566 799.042 204.551 800.775C202.282 804.719 197.267 805.795 195.356 810.038C199.357 813.145 204.193 811.592 208.551 812.488C210.641 812.906 212.91 812.667 215.059 812.369C221.627 811.472 228.075 812.667 234.583 813.026C238.942 813.265 243.24 813.683 247.599 813.803C251.301 813.922 254.883 813.325 256.913 810.098L256.913 810.158ZM229.747 778.305C233.21 778.664 234.643 779.082 236.016 778.962C242.583 778.365 249.151 778.544 255.659 779.381C262.525 780.277 269.391 781.233 276.257 782.428C279.541 782.966 281.929 782.189 283.78 779.321C284.974 777.468 286.467 775.795 287.721 773.883C289.751 770.835 288.796 768.803 285.392 768.624C274.824 768.146 264.197 768.325 253.748 766.89C246.046 765.815 240.255 767.608 235.18 773.285C233.986 774.6 232.553 775.735 229.807 778.365L229.747 778.305ZM275.601 788.405C272.018 787.747 269.929 787.149 267.839 787.09C258.047 786.612 248.256 785.775 238.643 783.743C235.419 783.086 232.135 783.146 228.851 782.727C226.045 782.309 223.896 783.205 222.104 785.417C220.492 787.389 218.045 788.643 217.447 791.632C218.88 793.604 221.149 793.484 223.299 793.783C229.807 794.679 236.255 795.695 242.822 796.532C248.972 797.309 255.181 797.668 261.331 798.564C266.287 799.341 269.809 797.608 272.556 793.484C273.392 792.229 274.108 790.974 275.66 788.405L275.601 788.405ZM109.918 902.428C109.142 903.026 107.948 903.922 106.813 904.878C106.515 905.117 106.336 905.416 106.097 905.715C105.022 907.03 105.619 910.018 107.052 910.556C108.425 911.034 109.798 911.691 111.231 911.751C120.008 912.169 128.606 913.544 137.203 915.336C144.069 916.771 149.383 914.679 153.622 909.241C154.936 907.567 157.861 906.492 157.145 904.042C156.369 901.173 153.503 902.727 151.533 902.548C147.592 902.189 143.532 902.01 139.651 901.83C132.666 901.591 126.158 898.843 119.172 899.022C115.709 899.082 112.664 899.321 109.918 902.428ZM257.211 753.265C255.659 754.819 254.047 756.313 252.554 757.986C252.196 758.404 252.017 759.421 252.196 759.958C252.375 760.496 253.151 761.213 253.689 761.213C266.346 761.811 279.064 762.289 291.781 762.767C293.393 762.827 294.587 761.811 295.065 760.317C295.662 758.584 295.96 756.731 296.199 754.879C296.557 751.293 295.781 750.217 292.079 750.098C284.139 749.859 276.138 750.217 268.197 749.679C263.839 749.381 260.316 750.098 257.211 753.205L257.211 753.265ZM132.606 927.647C133.322 926.87 134.039 926.033 134.815 925.316C135.949 924.241 136.905 923.046 136.546 921.432C136.069 919.101 133.979 918.982 132.248 919.042C123.113 919.161 114.157 918.265 105.261 916.113C101.858 915.277 98.8126 916.651 96.3647 919.042C95.7079 919.699 95.4691 921.074 95.4094 922.149C95.29 923.583 96.6035 923.882 97.5588 924.062C107.948 925.735 118.277 927.348 128.665 928.902C130.098 929.141 131.531 929.201 132.606 927.647ZM85.6774 935.954C95.708 938.643 105.261 940.197 115.053 940.675C117.381 940.794 119.351 940.496 120.904 938.643C121.859 937.508 123.471 936.193 123.352 935.117C123.113 932.787 120.784 932.906 119.053 932.846C110.754 932.607 102.873 929.5 94.5735 928.842C89.2597 928.424 87.4088 930.635 85.7968 935.894L85.6774 935.954ZM76.1843 948.743C76.7216 949.161 77.259 949.818 77.856 949.938C84.2445 951.073 90.7524 951.671 97.0812 953.284C101.977 954.539 105.5 952.328 109.082 949.878C109.56 949.579 109.858 948.623 109.798 947.966C109.798 947.309 109.261 946.292 108.783 946.173C100.246 944.739 91.648 943.424 83.11 941.99C80.1845 941.512 77.4978 943.962 76.0649 947.667C75.9454 947.966 76.0648 948.384 76.1245 948.802L76.1843 948.743ZM65.079 963.085C73.0796 965.834 80.4233 965.237 87.588 965.954C90.9912 966.312 93.0809 964.519 95.0512 962.248C96.1259 961.053 95.6482 958.902 94.2153 958.723C86.6327 957.707 79.1098 956.691 71.5272 955.795C69.9151 955.615 68.7808 956.631 67.9449 957.946C66.9896 959.5 66.1538 961.173 65.079 963.085ZM46.9882 987.707C47.5852 988.304 48.0032 989.201 48.5406 989.26C53.5559 989.798 58.5114 990.336 63.5266 990.516C64.7208 990.516 66.094 989.32 67.109 988.364C69.4972 986.093 68.9002 983.643 65.7358 982.986C61.9147 982.149 57.974 981.492 54.0932 981.133C50.8094 980.775 48.7197 982.806 47.4062 985.734C47.1076 986.392 47.1076 987.169 46.9882 987.766L46.9882 987.707ZM57.9143 974.5C58.392 974.799 59.2279 975.814 60.1235 975.874C66.512 976.412 72.9601 976.89 79.4083 977.129C80.8413 977.129 81.8562 975.516 81.9756 974.022C82.1548 972.348 81.3189 971.034 79.5874 971.093C74.1542 971.332 68.8405 970.436 63.5864 969.36C62.2132 969.061 60.7205 969.241 59.3473 969.48C57.9143 969.659 56.7202 973.065 57.9143 974.559L57.9143 974.5ZM271.242 742.508C276.317 744.839 280.317 743.703 284.198 744.181C286.169 744.42 288.915 745.496 289.811 742.867C290.408 741.194 288.318 739.7 287.004 738.445C282.745 734.261 278.526 734.301 274.347 738.564C273.392 739.58 272.556 740.775 271.242 742.508ZM45.3762 996.073C46.2718 997.926 48.0629 998.284 49.7347 998.464C51.4662 998.643 53.9738 998.344 54.2723 996.671C54.8096 993.563 52.0035 995.177 50.6303 994.878C49.257 994.579 47.8839 994.519 46.5106 994.519C45.6151 994.519 45.2568 995.177 45.4359 996.073L45.3762 996.073Z"
        fill="url(#paint6_radial_0_1)"/>
    <path
        d="M33.7933 966.97C34.6889 966.432 35.5247 965.715 36.48 965.476C37.6144 965.177 38.7489 965.834 38.7489 967.089C38.7489 968.583 37.3756 968.583 36.48 968.284C35.5247 967.985 34.7486 967.209 33.853 966.611L33.853 966.91L33.7933 966.97Z"
        fill="url(#paint7_radial_0_1)"/>
    <defs>
        <radialGradient id="paint0_radial_0_1" cx="0" cy="0" r="1" gradientUnits="userSpaceOnUse"
                        gradientTransform="translate(793.076 194.579) rotate(0.120111) scale(196.376 190.833)">
            <stop stop-color="#4D4B4F"/>
            <stop offset="1" stop-color="#29292B"/>
        </radialGradient>
        <radialGradient id="paint1_radial_0_1" cx="0" cy="0" r="1" gradientUnits="userSpaceOnUse"
                        gradientTransform="translate(909.373 348.501) rotate(0.120118) scale(2.32952 2.2639)">
            <stop stop-color="#4D4B4F"/>
            <stop offset="1" stop-color="#29292B"/>
        </radialGradient>
        <radialGradient id="paint2_radial_0_1" cx="0" cy="0" r="1" gradientUnits="userSpaceOnUse"
                        gradientTransform="translate(709.445 631.77) rotate(-74.8999) scale(149.058 144.658)">
            <stop stop-color="#4D4B4F"/>
            <stop offset="1" stop-color="#29292B"/>
        </radialGradient>
        <radialGradient id="paint3_radial_0_1" cx="0" cy="0" r="1" gradientUnits="userSpaceOnUse"
                        gradientTransform="translate(844.951 576.7) rotate(-74.8997) scale(1.76807 1.71602)">
            <stop stop-color="#4D4B4F"/>
            <stop offset="1" stop-color="#29292B"/>
        </radialGradient>
        <radialGradient id="paint4_radial_0_1" cx="0" cy="0" r="1" gradientUnits="userSpaceOnUse"
                        gradientTransform="translate(287.326 320.26) rotate(90.1199) scale(91.3059 88.5645)">
            <stop stop-color="#4D4B4F"/>
            <stop offset="1" stop-color="#29292B"/>
        </radialGradient>
        <radialGradient id="paint5_radial_0_1" cx="0" cy="0" r="1" gradientUnits="userSpaceOnUse"
                        gradientTransform="translate(215.892 374.333) rotate(90.1199) scale(1.08312 1.05066)">
            <stop stop-color="#4D4B4F"/>
            <stop offset="1" stop-color="#29292B"/>
        </radialGradient>
        <radialGradient id="paint6_radial_0_1" cx="0" cy="0" r="1" gradientUnits="userSpaceOnUse"
                        gradientTransform="translate(174.154 863.984) rotate(90.1199) scale(176.413 171.116)">
            <stop stop-color="#4D4B4F"/>
            <stop offset="1" stop-color="#29292B"/>
        </radialGradient>
        <radialGradient id="paint7_radial_0_1" cx="0" cy="0" r="1" gradientUnits="userSpaceOnUse"
                        gradientTransform="translate(36.1352 968.459) rotate(90.1199) scale(2.0927 2.02999)">
            <stop stop-color="#4D4B4F"/>
            <stop offset="1" stop-color="#29292B"/>
        </radialGradient>
    </defs>
</svg>
